P2
#Created with GIMP
40 40
255
237 177 157 160 158 167 184 195 201 201 201 200 201 200 200 200 198 198 197 197 196 196 195 195 195 193 193 192 192 191 190 191 193 202 212 216 216 217 225 246 
186 157 160 163 183 212 220 219 218 217 215 213 212 211 210 208 206 204 203 201 199 198 196 195 193 191 190 189 188 186 185 182 179 180 186 202 216 217 215 226 
160 159 163 199 223 224 221 219 218 217 215 212 212 211 209 207 205 204 203 201 199 197 196 195 193 191 190 189 187 186 185 183 181 179 178 178 194 216 216 215 
157 158 196 227 224 222 221 219 217 217 215 212 212 211 209 207 205 204 203 201 199 197 196 195 193 191 190 189 187 185 185 183 181 179 178 177 176 194 216 216 
157 178 227 227 225 223 221 219 218 217 215 212 212 211 209 207 205 203 202 200 199 197 196 195 193 191 190 189 188 186 184 182 181 179 178 177 176 176 203 217 
159 207 229 227 225 222 221 219 218 217 215 212 212 211 209 207 205 203 202 200 199 197 196 195 193 191 190 189 188 186 185 182 181 179 178 177 176 174 184 215 
171 223 228 226 225 223 221 219 218 217 215 212 212 211 209 207 205 203 202 200 199 197 196 195 193 191 190 189 188 186 185 182 181 179 178 177 176 175 176 208 
180 229 228 227 225 223 221 219 218 217 215 212 212 211 209 207 205 203 202 200 199 197 196 195 193 191 190 189 188 186 185 182 181 179 178 177 176 175 173 200 
187 230 228 227 225 223 221 219 218 217 215 212 212 210 209 207 205 203 202 200 199 197 196 195 193 191 190 189 187 186 185 182 181 180 178 177 176 174 173 197 
187 231 228 226 225 223 221 219 218 217 215 212 211 210 209 207 205 203 202 201 199 197 196 195 193 191 190 188 186 185 185 182 181 180 178 177 176 173 172 197 
187 231 228 226 225 223 221 219 218 217 215 212 211 210 209 207 205 203 202 201 199 197 196 195 193 191 190 188 186 185 185 182 181 180 178 177 176 173 172 197 
187 231 228 226 225 223 221 219 218 217 215 212 211 210 209 207 205 203 202 201 199 197 196 195 193 191 190 188 186 185 185 182 181 180 178 177 176 173 172 197 
187 231 228 226 225 223 221 219 218 217 215 212 211 210 209 207 205 203 202 200 199 197 196 195 193 191 190 188 186 185 185 182 181 180 178 177 176 173 172 197 
187 231 228 226 225 223 221 219 218 217 215 212 211 211 209 207 205 203 202 200 199 197 196 195 193 191 190 188 186 185 185 182 181 180 178 177 176 173 172 197 
186 231 228 226 225 223 221 219 218 217 215 212 211 211 209 207 205 203 202 200 199 197 196 195 193 191 190 189 187 185 185 182 181 180 178 177 176 173 172 197 
186 231 228 226 225 223 221 219 218 217 215 212 211 211 209 207 205 203 202 200 199 197 196 195 193 191 190 189 187 185 185 182 181 180 178 177 176 173 172 197 
186 231 229 226 225 223 221 219 218 217 215 212 211 211 209 207 205 203 202 200 199 197 196 195 193 191 190 189 187 185 185 182 181 180 178 177 176 173 172 197 
186 231 229 227 225 223 221 219 218 217 215 212 211 211 209 207 205 203 202 200 199 197 196 195 193 191 190 189 187 185 185 182 181 180 178 177 176 173 172 197 
186 231 229 227 225 223 221 219 218 217 215 212 211 210 209 207 205 203 202 200 199 197 196 195 193 191 190 189 187 185 185 182 181 180 178 177 176 173 172 197 
187 231 228 226 225 223 221 219 218 217 215 212 211 210 209 207 205 203 202 201 199 197 196 195 193 191 190 189 187 185 185 182 181 180 178 177 176 173 172 197 
188 231 228 226 225 223 221 219 218 217 215 212 211 210 209 207 205 203 202 201 199 197 196 195 193 191 190 189 187 185 185 182 181 180 178 177 176 173 172 197 
188 231 228 226 225 223 221 219 218 217 215 212 211 210 209 207 205 203 202 201 199 197 196 195 193 191 190 189 187 185 185 182 181 180 178 177 176 173 172 197 
188 231 228 226 225 223 221 219 218 217 215 212 211 210 209 207 205 203 202 201 199 197 196 195 193 191 190 189 187 185 185 182 181 180 178 177 176 173 172 197 
188 231 228 226 225 223 221 219 218 217 215 212 211 210 209 207 205 204 202 201 199 197 196 195 193 191 190 188 187 185 185 182 181 180 178 177 176 173 172 197 
188 231 228 226 225 223 221 219 218 217 215 212 211 210 209 207 205 203 202 201 199 197 196 195 193 191 190 188 187 185 185 182 181 180 178 177 176 173 172 197 
188 231 228 226 225 223 221 219 218 217 215 212 211 210 209 207 205 203 202 201 199 197 196 195 193 191 189 188 187 185 185 182 181 180 178 177 176 173 172 197 
188 231 228 226 225 223 221 219 218 217 215 212 211 210 209 207 205 203 202 201 199 197 196 195 193 191 189 188 187 185 185 182 181 180 178 177 176 173 172 197 
188 231 228 226 225 223 221 219 218 217 215 212 211 210 209 207 205 203 202 200 199 197 196 195 193 191 189 188 187 185 185 182 181 180 178 177 176 173 172 197 
188 231 228 226 225 223 221 219 218 217 215 212 211 210 209 207 205 203 202 200 199 197 196 195 193 191 189 188 187 185 185 182 181 180 178 177 176 173 172 197 
188 231 228 226 225 223 221 219 218 217 215 212 211 210 209 207 205 203 202 200 199 197 196 195 193 191 190 188 187 185 185 182 181 180 178 177 176 174 172 197 
187 231 228 226 225 223 221 219 218 217 215 212 211 210 209 207 205 203 202 200 199 197 196 195 193 191 190 188 187 185 185 182 181 180 178 177 176 174 172 197 
185 230 228 226 225 223 221 219 218 217 215 212 211 210 209 207 205 203 202 200 199 197 196 195 193 191 190 188 187 185 185 182 181 180 178 177 176 174 172 198 
173 227 229 226 225 223 221 219 218 217 215 212 211 210 209 207 205 203 202 200 199 197 196 195 193 191 190 188 187 185 185 182 181 180 178 177 176 174 175 206 
161 216 229 226 225 223 221 219 218 217 215 212 211 210 209 207 205 203 202 200 199 197 196 195 193 191 190 188 187 185 185 182 181 180 178 177 176 173 180 213 
155 190 229 226 225 223 221 219 218 217 215 212 211 210 209 207 205 203 202 200 199 197 196 195 193 191 190 188 187 185 185 182 181 180 178 177 176 174 196 218 
155 164 213 228 225 223 221 219 218 217 215 212 211 210 209 207 205 203 202 201 199 197 196 195 193 191 190 188 187 185 185 182 181 180 178 177 175 183 215 218 
156 158 172 216 227 223 221 219 218 217 215 212 211 210 209 207 205 203 202 201 199 197 196 195 193 191 190 188 187 185 185 182 181 180 178 176 182 208 218 217 
153 158 158 172 208 222 222 220 218 217 215 212 211 210 209 207 205 203 202 201 199 197 196 195 192 191 190 188 187 185 185 182 181 179 177 187 209 219 217 221 
143 156 160 161 166 186 204 213 216 215 212 210 210 208 208 208 205 203 202 201 199 198 197 195 194 192 192 191 189 187 188 186 186 192 203 215 218 218 219 238 
142 143 150 152 154 155 159 165 169 169 170 171 171 172 174 175 174 175 176 178 179 179 179 181 182 182 183 184 185 186 186 189 193 199 206 210 218 228 244 254 
