P2
#Created with GIMP
40 40
255
254 221 175 164 164 164 172 182 190 191 191 191 192 193 194 194 195 196 196 197 197 198 198 199 199 200 200 201 201 201 201 203 206 213 217 218 218 221 235 251 
228 166 158 161 164 189 210 216 216 216 215 212 212 211 209 208 206 204 203 201 199 198 196 195 193 191 190 189 188 186 184 182 180 184 194 210 217 216 216 233 
191 157 160 173 209 224 222 220 218 217 215 212 212 211 209 208 205 204 203 201 199 197 196 195 193 191 190 189 188 186 185 183 181 179 178 182 203 218 216 217 
177 156 169 216 226 223 221 220 218 217 215 212 212 211 209 208 205 204 203 202 199 197 196 195 194 191 190 189 187 185 185 183 181 180 178 177 178 202 217 216 
170 159 207 229 225 223 222 220 218 217 216 212 212 211 209 208 206 204 202 201 199 197 196 195 194 191 190 190 188 186 185 183 181 180 178 177 175 179 209 217 
162 180 228 227 225 223 221 220 218 217 216 212 212 211 209 208 206 204 202 201 199 197 196 195 194 191 190 190 188 186 185 182 181 180 178 177 176 174 189 217 
160 204 229 227 226 223 221 220 218 217 216 212 212 211 209 208 206 204 202 201 199 197 196 195 194 191 190 190 188 186 185 183 181 180 178 177 176 174 177 210 
160 217 229 227 226 224 221 220 218 217 216 212 212 211 209 208 206 204 202 201 199 197 196 195 194 191 190 190 188 186 185 183 181 180 178 177 176 175 174 202 
161 223 229 227 225 224 222 220 218 217 216 212 212 211 209 208 206 204 202 201 199 197 196 195 194 191 190 189 188 186 185 183 181 180 178 177 176 174 173 197 
160 224 229 227 225 224 221 220 218 217 216 212 211 211 209 207 205 204 202 201 199 198 196 195 194 191 190 189 187 185 185 183 181 180 178 177 176 174 173 197 
159 224 230 227 226 224 221 220 218 217 216 212 211 210 209 207 205 204 202 201 199 198 196 195 194 191 190 189 186 185 185 183 181 180 178 177 176 173 172 196 
160 224 230 227 226 224 221 220 218 217 216 212 211 210 209 207 205 204 202 201 199 198 196 195 194 191 190 189 186 185 185 183 181 180 178 177 176 173 172 196 
160 224 230 227 226 224 221 220 218 217 216 212 211 210 209 207 205 204 202 201 199 198 196 195 194 191 190 189 186 185 185 183 181 180 178 177 176 173 172 196 
160 224 230 227 226 224 221 220 218 217 216 212 211 210 209 207 205 204 202 201 199 198 196 195 194 191 190 189 186 185 185 183 181 180 178 177 176 173 172 196 
159 224 229 227 225 224 221 220 218 217 216 212 211 210 209 207 205 204 202 201 199 198 196 195 194 191 190 189 187 185 185 183 181 180 178 177 176 173 172 196 
159 224 229 227 225 224 221 220 218 217 216 212 211 210 209 207 205 204 204 204 202 198 195 195 193 191 190 189 187 185 185 183 181 180 178 177 176 173 172 196 
159 224 230 227 226 224 221 220 218 217 216 212 211 210 209 207 205 206 183 146 145 179 199 195 193 191 190 189 187 185 185 183 181 180 178 177 176 173 172 196 
159 224 230 227 226 224 221 220 218 217 216 212 211 210 209 207 207 151 41 9 10 43 150 196 193 191 190 189 187 185 185 183 181 180 178 177 176 173 172 196 
159 224 230 227 226 224 221 220 218 217 216 212 211 210 209 209 186 62 58 43 9 2 44 178 194 191 190 189 187 185 185 183 181 180 178 177 176 173 172 196 
160 225 230 227 226 224 221 220 218 217 216 212 211 210 209 211 152 156 216 124 29 4 10 140 196 191 190 189 187 185 185 183 181 180 178 177 176 173 172 196 
160 225 229 227 225 224 221 220 218 217 216 212 211 210 209 210 150 163 219 121 27 5 10 140 196 191 190 189 187 185 185 183 181 180 178 177 176 173 172 196 
160 225 230 227 225 224 221 220 218 217 216 212 211 210 209 209 183 55 53 34 7 3 37 176 193 190 190 189 187 185 185 183 181 180 178 177 176 173 172 196 
160 225 230 227 225 224 221 220 218 217 216 212 211 210 209 207 207 140 31 5 6 33 138 196 192 190 190 189 187 185 185 183 181 180 178 177 176 173 172 196 
160 225 230 227 225 224 221 220 218 217 216 212 211 210 209 207 204 205 175 132 131 173 198 195 193 191 190 189 187 185 185 183 181 180 178 177 176 173 172 196 
160 225 230 227 225 224 221 220 218 217 216 212 211 210 209 207 205 202 204 205 203 199 197 195 193 191 190 189 187 185 185 183 181 180 178 177 176 173 172 196 
160 225 230 227 225 224 221 220 218 217 216 212 211 210 209 207 205 203 202 201 199 197 196 195 193 191 190 189 187 185 185 183 181 180 178 177 176 173 172 196 
160 225 230 227 225 224 221 220 218 217 216 212 211 210 209 207 205 203 202 201 199 197 196 195 193 191 190 189 187 185 185 183 181 180 178 177 176 173 172 196 
160 225 230 227 225 224 221 220 218 217 216 212 211 210 209 207 205 203 202 201 199 197 196 195 193 191 190 189 187 185 185 183 181 180 178 177 176 173 172 196 
160 225 230 227 225 224 221 220 218 217 216 212 211 210 209 207 205 203 202 201 199 197 196 195 193 191 190 189 187 185 185 183 181 180 178 177 176 173 172 196 
160 225 230 227 225 224 221 220 218 217 216 212 211 210 209 207 205 203 202 201 199 197 196 195 193 191 190 189 187 185 185 183 181 180 178 177 176 174 172 196 
160 225 229 227 225 224 221 220 218 217 216 212 211 210 209 207 205 203 202 201 199 197 196 195 193 191 190 189 187 185 185 183 181 180 178 177 176 174 172 196 
160 223 229 227 225 224 221 220 218 217 216 212 211 210 209 207 205 203 202 201 199 197 196 195 193 191 190 189 187 185 185 183 181 180 178 177 176 174 172 197 
154 218 230 227 225 224 221 220 218 217 216 212 211 210 209 207 205 203 202 201 199 197 196 195 193 191 190 189 187 185 185 183 181 180 178 177 176 174 174 202 
148 205 231 227 225 224 221 220 218 217 216 212 211 210 209 207 205 203 202 201 199 197 196 195 193 191 190 189 187 185 185 183 181 180 178 177 176 174 177 211 
148 180 227 227 225 224 221 220 218 217 216 212 211 210 209 207 205 203 202 201 199 197 196 195 193 191 190 189 187 185 185 183 181 180 178 177 176 173 190 217 
149 161 209 228 226 224 221 220 218 217 216 212 211 210 209 207 205 203 202 201 199 198 196 195 193 191 190 189 187 185 185 183 181 180 178 177 175 178 210 218 
149 157 172 217 227 224 221 220 218 217 216 212 211 210 209 207 205 203 202 201 199 198 196 195 193 191 190 189 187 185 185 183 181 180 178 177 177 199 218 218 
147 158 157 174 213 224 222 220 218 217 216 212 211 210 209 207 205 203 202 201 199 198 196 195 193 191 190 189 187 185 185 183 181 179 177 179 200 218 218 218 
142 155 160 160 169 195 213 218 219 218 216 212 212 211 210 208 206 203 202 201 199 197 196 194 192 191 190 189 187 185 185 182 181 183 191 207 217 218 217 231 
142 144 155 161 162 164 173 186 194 194 194 194 194 195 196 197 196 196 196 197 198 197 197 198 198 198 198 199 200 199 201 201 204 211 218 217 217 220 232 251 
