P2
#Created with GIMP
40 40
255
254 219 169 158 159 161 169 182 190 193 193 192 193 194 194 194 193 194 195 196 195 195 194 194 195 195 195 195 195 197 197 198 199 206 213 216 217 217 227 248 
231 167 157 160 168 193 214 219 219 217 216 214 213 212 210 208 205 203 202 201 199 198 196 195 193 192 190 188 186 185 184 182 182 183 188 204 218 217 217 227 
199 156 158 173 213 225 222 220 218 217 216 214 212 211 208 208 205 203 202 201 199 198 197 196 194 192 190 189 186 185 184 183 182 181 177 178 195 216 217 216 
183 155 169 216 227 224 222 220 218 217 216 213 212 211 209 208 205 204 203 201 199 197 196 195 193 192 191 189 186 185 184 184 182 181 178 177 177 193 217 216 
172 159 206 228 225 224 222 220 218 217 216 213 212 211 210 208 205 204 203 201 199 197 196 195 193 192 191 189 186 185 184 184 182 181 178 177 176 175 203 216 
163 176 229 227 225 224 222 220 218 217 216 213 212 211 210 208 205 204 203 201 199 197 196 195 193 192 191 189 188 189 187 186 185 181 178 177 176 173 183 213 
157 198 230 227 226 224 222 220 218 217 216 213 212 211 210 208 205 204 203 201 199 197 196 195 193 192 190 191 179 121 79 91 148 182 178 177 176 175 174 202 
155 213 230 227 226 225 222 220 218 217 216 213 212 211 210 208 205 204 203 201 199 197 196 195 193 192 191 181 75 12 3 2 23 129 182 177 177 176 173 194 
153 218 230 227 226 224 222 219 218 217 216 213 212 211 210 208 205 204 203 201 199 197 196 196 193 192 193 131 78 106 55 9 2 46 170 177 176 176 173 191 
150 219 229 227 226 224 222 219 218 217 216 212 212 211 210 208 205 204 203 201 199 197 196 196 194 192 191 130 218 225 110 18 4 23 154 179 176 175 173 190 
150 220 230 227 226 224 222 219 218 217 216 212 212 211 210 208 205 204 203 201 199 197 196 196 194 192 192 122 136 154 71 11 4 30 163 179 177 175 173 190 
151 219 230 227 226 224 222 219 218 217 216 212 212 211 210 208 205 204 203 201 199 197 196 196 194 192 192 162 38 19 11 4 5 90 179 177 177 176 173 190 
151 219 230 227 226 224 222 219 218 217 216 212 212 211 210 208 205 204 203 201 199 197 196 196 194 192 190 192 147 59 27 35 94 171 178 177 177 175 173 190 
151 219 230 227 226 224 222 219 218 217 216 213 212 211 210 208 205 204 203 201 199 197 196 195 193 191 190 189 190 181 166 170 184 181 178 177 176 175 173 190 
151 219 230 227 226 224 222 220 218 217 216 213 212 211 210 208 205 204 203 201 199 197 195 194 192 191 190 189 188 186 186 184 182 180 179 178 177 175 173 190 
151 219 230 227 226 224 222 220 218 217 216 213 212 211 210 208 205 204 203 201 199 197 195 194 192 191 190 189 188 186 184 183 182 180 179 178 177 175 173 190 
151 219 230 227 226 224 222 220 218 217 216 213 212 211 210 208 205 204 203 201 199 197 195 194 192 191 190 189 188 186 184 183 182 180 179 178 177 175 173 190 
151 219 230 227 226 224 222 220 218 217 216 213 212 211 210 208 205 204 203 201 199 197 195 194 192 191 190 189 188 186 184 183 182 180 179 178 177 175 173 190 
151 219 230 227 226 224 222 219 218 217 216 213 212 211 210 208 205 204 203 201 199 197 195 194 192 191 190 189 188 186 184 183 182 180 179 178 177 175 173 190 
151 219 230 227 226 224 222 219 218 217 216 212 212 211 210 208 205 204 203 201 199 197 195 194 192 191 190 189 187 185 184 183 182 180 179 178 177 175 173 190 
151 219 230 227 226 224 222 219 218 217 216 212 212 211 210 208 205 204 203 201 199 197 195 194 192 191 190 189 187 185 184 183 182 180 179 178 177 175 173 190 
151 219 230 227 226 224 222 219 218 217 216 212 212 211 210 208 205 204 203 201 199 197 195 194 192 191 190 189 187 185 184 183 182 180 179 178 177 175 173 190 
151 219 230 227 226 224 222 219 218 217 216 212 212 211 210 208 205 204 203 201 199 197 195 194 192 191 190 189 187 185 184 183 182 180 179 178 177 175 173 190 
151 219 230 227 226 224 222 219 218 217 216 212 212 211 210 208 205 204 203 201 199 197 195 194 192 191 190 189 187 185 184 183 182 180 179 178 177 175 173 190 
151 219 230 227 226 224 222 219 218 217 216 212 212 211 210 208 205 204 203 201 199 197 195 194 192 191 190 189 187 185 184 183 182 180 179 178 177 175 173 190 
151 219 230 227 226 224 222 220 221 221 220 216 212 211 210 208 205 204 203 201 199 197 195 194 192 191 190 189 187 185 184 183 182 180 179 178 177 175 173 190 
151 219 230 227 226 224 222 216 159 113 122 180 214 211 210 208 205 204 203 201 199 197 195 194 192 191 190 189 187 185 184 183 182 180 179 178 177 175 173 190 
151 219 230 227 226 225 218 108 16 3 3 32 154 213 210 208 205 204 203 201 199 197 195 194 192 191 190 189 187 185 184 183 182 180 179 178 177 175 173 190 
151 219 230 227 226 227 167 69 95 52 9 2 51 198 211 208 205 204 203 201 199 197 195 194 192 191 190 189 187 185 184 183 182 180 179 178 177 175 173 190 
151 219 230 227 226 226 138 204 227 115 21 5 18 173 212 208 205 204 203 201 199 197 195 194 192 191 190 189 187 185 184 183 182 180 179 178 177 175 173 190 
151 219 230 227 226 226 144 148 172 83 14 4 24 181 212 208 206 204 203 201 199 197 195 194 192 191 190 189 187 185 184 183 182 180 179 178 177 175 173 190 
150 218 230 227 226 225 193 46 24 15 5 3 85 208 210 208 206 204 203 201 199 197 195 194 192 191 190 189 187 185 184 183 182 180 179 178 177 175 173 191 
146 209 231 227 226 224 224 167 58 23 28 87 192 213 211 208 206 204 203 201 199 197 195 194 192 191 190 189 187 185 184 183 182 180 179 178 177 175 174 198 
145 189 230 227 226 225 222 223 209 185 190 212 214 211 210 208 206 204 203 201 199 197 195 194 192 191 190 189 187 185 184 183 182 180 179 178 177 175 178 210 
147 166 219 229 226 225 222 220 219 219 216 213 212 211 210 208 205 204 203 201 199 197 195 194 192 191 190 189 187 186 184 184 182 180 179 178 177 174 194 216 
147 156 187 228 226 225 222 220 218 217 215 213 211 211 210 208 205 204 203 201 199 197 195 194 192 191 190 189 187 186 184 184 182 180 179 177 176 183 212 216 
147 158 160 195 226 225 222 220 218 217 216 213 211 211 210 208 205 204 203 201 199 197 195 194 192 191 190 189 187 186 184 184 182 180 179 177 180 206 219 217 
144 158 158 161 187 217 224 220 218 217 216 213 211 210 210 208 205 204 203 201 199 197 195 194 192 191 189 188 187 185 184 183 181 179 179 188 209 218 217 218 
142 150 159 161 161 173 192 205 210 211 210 210 209 207 206 206 203 202 202 201 199 198 197 196 195 194 193 192 191 190 189 188 189 194 206 216 218 217 218 237 
149 141 144 150 150 151 151 154 158 159 159 159 161 162 163 163 163 164 166 166 166 167 169 171 172 171 171 173 174 175 175 177 186 192 198 205 215 228 243 254 
