P2
#Created with GIMP
40 40
255
235 179 158 159 160 167 181 194 198 199 198 199 199 199 198 198 196 196 196 196 196 195 194 194 193 192 193 194 193 193 192 192 196 206 214 215 215 216 228 250 
182 158 160 162 185 211 220 220 219 217 214 214 213 212 210 208 205 204 203 201 199 197 196 195 194 191 190 189 188 185 184 182 181 182 190 206 217 217 216 232 
156 158 163 200 224 222 220 219 218 216 214 213 212 211 210 207 205 203 202 201 199 197 196 194 193 191 190 190 188 186 184 183 182 180 178 178 196 216 216 220 
155 159 199 229 224 222 221 219 218 217 213 212 211 211 209 207 205 203 202 201 199 197 195 194 193 191 190 190 188 186 184 183 182 180 178 176 175 198 217 220 
155 180 227 227 224 222 222 219 217 217 213 212 211 211 209 207 205 203 202 201 199 197 195 194 193 191 190 190 188 186 184 183 182 180 178 176 175 178 208 221 
158 210 230 227 224 222 222 219 217 217 213 212 211 211 209 207 205 203 202 201 199 197 195 194 193 191 190 190 190 188 185 186 183 180 178 177 177 175 191 221 
173 226 229 227 224 222 222 219 217 217 213 212 211 211 209 207 205 203 202 201 199 197 195 194 193 191 190 191 158 91 68 92 156 181 178 177 177 175 178 214 
186 230 228 227 225 222 222 219 217 217 213 212 211 211 209 207 205 203 202 201 199 197 195 194 193 191 191 153 37 10 4 4 37 148 179 177 176 175 174 206 
193 232 229 227 225 223 221 219 217 217 213 212 211 211 209 207 205 203 202 201 199 197 195 194 193 191 189 95 105 104 40 7 3 76 180 177 177 176 174 201 
194 232 229 227 225 223 220 219 217 217 213 212 211 211 209 207 205 203 202 201 199 197 195 194 193 191 179 126 248 199 78 9 4 44 173 177 176 174 173 201 
193 231 228 227 225 223 220 219 217 217 213 212 211 211 209 207 205 203 202 201 199 197 195 194 193 191 186 97 154 127 47 6 3 61 177 177 177 175 173 201 
193 231 228 226 225 223 220 219 217 217 213 212 211 211 209 207 205 203 202 201 199 197 195 194 193 191 192 130 20 15 7 3 16 128 180 177 177 175 173 201 
193 231 228 226 225 223 220 219 217 217 213 212 211 211 209 207 205 203 202 201 199 197 195 194 193 191 189 188 124 46 30 48 123 178 177 177 176 175 173 202 
194 231 228 226 225 223 220 219 217 217 213 212 211 211 210 207 205 203 202 201 199 197 195 194 193 191 188 187 190 178 168 175 185 180 177 177 176 174 173 201 
194 231 228 226 225 223 220 219 217 217 213 212 211 211 210 207 205 203 202 201 199 197 195 194 193 191 189 189 188 186 185 183 182 180 177 176 176 174 173 201 
194 231 228 226 225 223 220 219 217 217 213 212 211 211 210 207 205 203 206 204 203 199 195 194 193 191 189 189 188 186 184 183 182 180 177 176 176 174 173 201 
194 231 228 226 225 223 220 219 217 217 213 212 211 211 210 207 207 195 135 94 108 167 198 194 193 191 189 189 188 185 184 183 183 180 177 176 176 174 173 201 
194 231 228 226 225 223 220 219 217 217 213 212 211 211 210 208 197 81 11 2 2 30 146 196 192 191 189 189 188 185 184 183 183 180 177 176 176 174 173 201 
194 231 228 226 225 223 220 219 217 217 213 212 211 211 210 211 139 71 96 49 7 2 51 184 193 191 189 189 187 185 184 182 182 180 177 176 176 174 173 201 
194 231 228 226 225 223 220 219 217 217 213 212 211 211 210 207 132 220 220 104 17 4 22 166 194 191 189 188 187 185 184 182 182 180 177 176 176 174 173 201 
194 231 228 226 225 223 220 219 217 217 213 212 211 211 210 210 126 154 164 73 11 3 28 172 194 191 190 189 187 185 184 182 182 180 177 176 176 174 173 201 
194 231 228 226 225 223 220 219 217 217 213 212 211 211 210 211 166 35 24 14 5 4 89 193 192 191 190 189 187 185 184 182 182 180 177 176 176 174 173 201 
194 231 228 226 225 223 220 219 217 217 213 212 211 211 209 207 207 144 46 19 26 88 182 195 192 191 190 189 187 185 184 182 182 180 177 176 176 174 173 201 
194 231 228 226 225 223 220 219 217 217 213 212 211 211 209 207 205 206 191 167 174 197 197 193 193 191 190 189 187 185 184 182 182 180 177 176 176 174 173 201 
194 231 228 226 225 223 220 219 217 217 213 212 211 211 210 208 205 203 203 203 200 197 196 194 193 191 189 189 187 186 184 182 182 180 177 176 176 174 173 201 
194 231 228 226 225 223 220 220 221 220 217 213 211 211 210 208 205 203 202 201 199 197 196 194 193 191 189 189 187 186 184 182 182 180 177 176 176 174 173 201 
194 231 228 226 225 223 223 203 147 124 157 206 213 210 210 208 205 203 202 201 199 197 196 194 193 191 189 189 187 186 184 182 182 180 177 176 176 174 173 201 
194 231 228 226 225 225 191 59 8 3 11 87 203 211 209 208 205 203 202 201 199 197 196 194 193 191 189 189 187 186 184 182 182 180 177 176 176 174 173 201 
194 231 228 227 225 221 101 68 69 23 4 5 127 214 210 208 205 203 202 201 199 197 196 194 193 191 189 189 187 186 184 182 182 180 177 176 176 174 173 201 
194 231 228 227 226 203 139 234 175 63 6 2 77 211 209 208 205 203 202 201 199 197 196 194 193 191 189 189 187 186 184 182 182 180 177 176 176 175 173 202 
194 231 228 227 225 205 121 202 146 49 5 2 82 211 209 208 205 203 202 201 199 197 196 194 193 191 189 189 187 186 184 182 182 180 177 176 176 175 173 202 
190 231 228 227 224 224 110 30 32 11 4 12 144 213 209 208 205 203 202 201 199 197 196 194 193 191 189 189 187 186 184 182 182 180 177 176 176 174 173 204 
182 229 228 227 224 224 205 89 19 9 27 116 208 210 209 208 205 203 202 201 199 197 196 194 193 191 189 189 187 186 184 182 182 180 177 176 176 174 175 208 
167 220 229 227 224 221 221 216 179 160 186 214 213 211 209 207 205 203 202 201 199 197 196 194 193 191 189 189 187 186 184 182 182 180 177 176 176 174 182 216 
156 198 230 227 224 222 220 219 219 219 216 213 212 211 209 207 205 203 202 201 199 197 196 194 193 191 189 189 187 186 184 182 182 180 177 176 176 174 197 219 
158 168 220 228 225 222 220 219 217 216 214 213 212 211 209 207 205 203 202 201 199 197 196 194 193 191 189 189 187 186 184 182 182 180 177 177 175 185 215 219 
159 156 180 222 226 223 221 219 218 216 214 213 212 211 209 207 205 203 202 201 199 197 196 194 193 191 189 189 187 186 184 182 182 180 177 176 182 210 218 220 
155 157 158 178 213 225 223 220 218 216 214 213 212 211 209 207 205 203 202 201 199 197 196 194 193 191 189 189 187 185 184 182 181 179 178 187 209 218 218 225 
146 157 160 160 166 190 207 213 216 215 213 212 211 210 208 207 205 203 202 201 200 198 197 195 194 192 191 190 188 187 187 185 186 191 203 214 217 216 220 241 
142 144 152 154 155 157 161 168 172 172 173 175 177 177 178 178 178 179 180 180 180 181 183 184 185 185 185 186 187 187 189 191 197 204 209 211 215 225 241 254 
