P2
#Created with GIMP
40 40
255
238 182 157 158 158 164 179 190 196 196 196 196 197 197 195 194 195 194 193 194 196 194 194 195 194 193 193 193 193 192 192 193 196 207 214 216 216 217 230 251 
183 158 160 162 185 208 219 220 219 218 216 214 213 212 210 207 205 203 202 200 199 197 196 195 194 191 189 187 186 185 183 181 180 182 191 207 217 217 216 231 
154 157 163 198 225 225 221 219 218 217 215 213 212 211 209 206 204 203 202 201 199 197 196 195 193 191 190 189 187 185 185 183 181 179 176 179 200 216 217 221 
154 159 197 227 225 224 221 220 217 217 215 212 212 211 209 206 204 203 203 201 199 196 196 195 192 190 190 189 187 185 185 183 181 180 177 177 177 200 217 219 
153 182 227 226 224 224 221 220 218 217 214 212 212 211 209 207 204 203 203 201 199 196 196 195 193 190 190 189 187 185 185 183 182 180 177 177 176 178 209 220 
159 212 229 226 225 224 222 222 221 218 216 213 212 211 209 206 204 203 202 200 199 197 196 195 193 190 190 189 190 188 185 184 182 179 177 177 176 173 190 219 
175 227 228 227 225 224 224 178 102 84 118 193 214 210 209 206 204 203 202 200 199 197 196 195 193 190 190 191 160 90 70 95 158 182 178 177 176 174 177 214 
188 229 228 227 225 226 162 32 9 2 4 59 190 212 209 207 204 203 202 200 199 197 196 195 193 190 192 151 36 10 3 4 41 154 181 177 176 175 173 207 
195 230 228 226 226 215 92 111 97 32 5 4 115 214 209 206 204 203 202 200 199 197 196 195 193 190 187 90 107 102 39 7 3 82 180 177 176 175 172 204 
196 231 228 227 227 198 152 252 183 63 7 3 81 212 207 206 204 203 202 200 199 197 196 195 193 191 176 130 249 194 73 8 3 49 173 176 176 175 172 204 
197 231 228 227 226 210 101 155 114 36 6 2 100 214 208 206 204 203 202 200 199 197 196 195 193 190 183 94 151 122 43 5 2 66 178 177 176 174 172 204 
198 231 228 226 225 226 130 17 13 5 2 30 173 214 209 206 204 203 202 200 199 197 196 195 193 190 192 126 20 15 5 2 18 133 180 177 176 175 172 204 
198 231 228 226 225 224 219 133 52 39 69 161 214 211 209 206 204 203 202 200 199 197 196 195 193 190 190 187 124 50 33 53 129 181 177 177 176 175 172 204 
198 231 228 226 225 224 223 223 208 199 209 215 212 211 209 207 204 203 202 200 199 197 196 195 193 190 190 190 191 179 168 178 184 180 177 177 176 174 172 204 
197 231 228 226 225 224 221 220 218 217 214 213 212 211 209 206 204 203 202 200 199 197 196 195 193 190 190 189 187 185 185 183 182 180 177 177 176 175 172 204 
197 231 228 226 225 224 221 219 218 217 214 212 211 211 209 207 204 203 202 200 199 197 195 194 192 191 190 188 186 185 184 183 181 180 178 177 176 175 172 204 
197 231 228 226 225 223 221 219 217 217 213 212 211 210 209 207 204 203 202 200 199 197 195 193 192 191 189 188 186 185 184 183 181 180 178 177 176 174 172 204 
197 231 228 226 225 223 221 219 217 217 213 212 211 210 209 207 204 203 202 200 199 197 195 194 192 191 189 188 186 185 184 183 181 180 178 177 176 174 172 204 
197 231 228 226 225 223 221 219 217 217 213 212 211 210 209 207 204 203 202 200 199 197 195 194 192 191 189 188 186 185 184 183 181 180 178 177 176 174 172 204 
197 231 228 226 225 224 221 219 217 217 213 212 211 210 209 207 204 203 202 200 199 197 195 194 192 191 189 188 186 185 184 183 181 180 178 177 176 174 172 204 
197 231 228 226 225 224 221 219 217 217 213 212 211 210 209 207 204 203 202 200 199 197 195 194 192 191 190 188 186 185 184 183 181 179 178 177 176 174 172 204 
197 231 228 226 225 224 221 219 218 217 213 212 211 210 209 207 204 203 202 200 199 197 195 194 193 191 190 188 187 185 184 183 181 179 177 176 175 174 172 204 
197 231 228 226 225 224 221 219 218 217 213 212 211 210 209 207 204 203 202 200 199 197 195 194 193 191 190 188 187 185 184 183 181 179 177 176 175 174 172 204 
197 231 228 226 225 224 221 219 218 217 213 212 211 210 209 207 204 203 202 200 199 197 195 194 193 191 190 188 187 185 184 183 181 179 177 176 175 174 172 204 
197 231 228 226 225 224 221 219 217 217 213 212 211 210 209 207 204 203 202 200 199 197 195 194 193 191 190 188 187 185 184 183 181 179 177 176 175 174 172 204 
197 231 228 226 225 224 221 222 222 220 217 212 211 210 209 207 204 203 202 200 199 197 195 194 193 191 190 188 189 188 186 186 181 179 177 176 175 174 172 204 
197 231 228 226 225 223 223 187 118 100 134 198 213 210 209 207 204 203 202 200 199 197 195 194 192 191 189 191 167 108 85 110 164 181 177 176 175 174 172 204 
197 231 228 226 225 226 172 40 7 2 5 70 196 212 209 207 204 203 202 200 199 197 195 194 192 191 192 160 43 8 4 5 49 159 179 176 175 174 172 204 
197 231 228 226 225 217 92 96 86 29 5 4 122 215 209 207 204 203 202 200 199 197 195 194 192 191 188 93 91 91 34 5 3 87 179 176 175 174 172 204 
197 231 228 226 227 199 147 248 181 63 7 3 81 213 209 207 204 203 202 200 199 197 195 194 192 192 177 128 246 192 73 7 3 52 175 177 176 174 172 204 
197 231 228 226 226 208 108 173 125 40 7 3 94 213 208 207 204 203 202 200 199 197 195 194 192 191 181 98 169 134 48 7 3 64 177 177 176 174 172 204 
192 230 228 226 225 225 122 18 18 7 4 23 164 212 208 207 204 203 202 200 199 197 195 194 192 191 192 117 19 19 9 4 15 128 180 177 176 175 173 205 
180 229 228 226 225 225 215 117 38 28 55 148 213 209 208 207 204 203 202 200 199 197 195 194 192 191 191 185 110 37 24 42 119 180 177 177 176 174 177 212 
164 219 230 226 225 224 223 220 200 191 206 216 212 210 208 207 204 203 202 200 199 197 195 194 192 191 190 190 189 173 162 172 184 180 177 177 176 173 186 218 
157 193 230 226 225 224 222 220 219 218 215 213 212 211 209 207 204 203 202 200 199 197 195 194 192 191 190 189 188 186 186 183 181 180 177 177 176 175 202 220 
157 164 213 228 225 224 222 220 218 216 214 213 212 211 209 207 205 203 202 200 199 197 195 194 192 191 190 189 188 186 185 183 182 180 177 177 174 189 215 219 
158 158 171 214 226 224 222 220 218 217 215 213 212 211 208 206 205 203 202 201 199 197 195 194 192 191 190 189 188 186 185 183 182 180 177 175 189 214 217 220 
154 159 159 170 202 219 222 220 219 217 215 213 212 211 209 207 205 204 202 201 199 197 195 193 192 191 190 189 187 186 185 182 181 179 180 194 214 217 216 227 
142 155 160 161 164 179 196 208 211 210 208 206 207 207 205 204 203 202 201 199 198 198 197 196 195 194 193 192 191 191 190 190 192 198 209 217 217 218 225 247 
142 140 144 147 148 148 148 151 154 155 156 157 158 158 159 160 160 162 161 162 164 164 166 167 168 168 169 170 170 172 174 176 181 189 197 208 217 232 249 255 
