P2
#Created with GIMP
40 40
255
248 206 168 163 164 166 173 182 190 193 192 192 193 195 195 195 195 195 194 195 197 198 198 198 199 199 199 200 201 202 202 202 208 214 218 219 218 219 235 252 
205 161 160 159 172 197 212 216 218 217 215 212 212 211 209 208 206 204 203 201 200 198 196 195 193 191 190 189 188 186 184 183 182 186 194 210 218 218 218 236 
163 157 159 183 217 224 221 219 218 217 215 212 212 211 210 207 205 204 203 201 199 197 195 194 194 191 190 189 187 185 184 182 181 180 178 183 203 218 218 221 
156 157 182 223 226 223 221 219 218 217 215 212 212 211 210 207 205 204 203 200 199 197 196 194 194 191 190 189 187 185 184 183 182 180 178 177 178 202 218 217 
156 169 221 229 226 224 221 219 218 217 214 212 212 211 210 208 205 204 202 200 198 197 196 195 193 191 190 189 187 185 184 183 182 180 178 177 175 178 210 216 
156 198 230 227 226 224 221 221 222 221 218 213 212 211 210 207 205 203 202 200 198 197 197 195 193 191 190 189 188 189 188 187 183 180 178 177 176 173 191 218 
165 220 228 227 226 224 223 208 154 127 157 205 213 211 210 207 205 203 202 200 198 197 197 196 194 191 190 191 181 135 107 128 172 182 178 177 176 175 177 212 
177 229 228 227 225 225 200 69 10 4 12 79 197 212 210 207 205 203 202 200 198 197 197 196 194 191 191 178 73 11 4 9 57 161 180 177 177 175 173 202 
186 231 229 227 225 224 113 62 71 27 6 6 114 214 210 207 205 204 202 200 198 197 197 196 194 191 192 111 61 75 32 7 3 81 180 177 176 175 172 198 
187 231 228 226 226 211 128 228 183 71 7 3 61 206 210 208 206 204 202 200 198 197 197 196 194 191 184 117 224 196 83 12 4 37 168 178 177 175 172 197 
187 230 228 227 226 212 117 199 157 58 7 3 66 206 210 208 205 204 202 200 198 197 197 196 194 191 186 108 193 168 67 10 3 42 171 177 176 175 173 198 
186 230 228 227 225 226 124 31 33 13 6 7 129 213 209 208 205 204 202 200 198 197 197 196 194 191 192 121 32 36 16 6 5 95 181 177 177 175 173 198 
186 230 229 227 225 224 211 98 19 8 23 105 206 212 210 207 205 204 202 200 198 197 197 196 194 191 190 185 95 20 8 17 79 169 179 177 176 176 173 198 
186 230 229 227 225 224 223 218 180 158 180 211 213 211 210 207 205 204 202 200 198 197 197 196 194 191 190 189 187 157 135 149 178 180 178 177 176 175 173 198 
186 230 229 227 225 223 221 220 220 219 216 213 212 211 210 207 205 204 202 200 199 197 197 196 194 191 190 189 188 187 187 184 180 180 178 177 176 175 173 198 
186 230 228 227 225 224 221 219 218 216 214 212 212 211 210 208 205 204 205 205 202 199 196 195 194 191 190 189 187 186 184 182 181 180 178 177 176 174 172 197 
186 230 228 227 225 224 221 219 218 217 214 212 212 211 210 207 205 205 177 142 147 185 198 195 194 191 190 189 187 186 185 182 182 180 178 176 176 174 172 197 
186 230 228 227 225 224 221 219 218 217 214 212 212 211 210 208 205 129 30 8 10 52 162 197 194 191 190 189 187 186 185 182 182 180 178 176 176 174 172 197 
186 230 228 227 225 224 221 219 218 217 214 212 212 211 210 211 165 51 60 35 7 2 60 188 194 191 190 189 187 185 184 182 182 180 178 176 176 174 172 197 
186 230 228 227 225 224 221 219 218 217 214 212 212 212 210 211 132 180 205 105 20 5 18 159 195 191 190 189 187 185 184 182 182 180 178 176 176 174 172 197 
187 230 228 227 225 224 221 219 218 217 214 212 212 211 209 210 131 186 206 101 19 5 16 158 195 191 190 189 187 185 184 182 182 180 178 176 176 174 172 198 
187 230 228 227 225 224 221 219 218 217 214 212 212 211 209 210 161 46 52 28 7 4 54 185 194 191 190 190 187 186 184 182 182 180 178 176 176 174 172 198 
186 230 228 227 225 224 221 219 218 217 214 212 212 211 210 208 205 118 23 5 9 46 155 197 193 191 190 190 187 186 184 182 182 180 178 176 176 174 172 198 
187 230 228 227 225 224 221 219 218 216 214 212 212 211 209 207 205 204 168 131 139 180 197 194 193 191 190 190 187 186 184 182 182 180 178 176 176 174 172 198 
187 231 228 227 225 224 221 219 218 216 214 212 212 211 210 207 205 204 205 205 203 199 196 195 193 191 190 190 187 186 184 182 182 180 178 176 176 174 172 198 
187 230 228 227 225 224 221 219 219 221 215 212 212 211 210 207 205 204 202 200 199 198 197 195 193 191 190 190 187 186 187 183 182 180 178 177 176 174 172 197 
187 230 228 227 225 224 222 218 187 168 190 214 213 211 210 207 205 203 202 200 199 198 197 196 194 191 190 190 189 165 143 158 182 180 178 177 176 174 171 197 
187 230 228 227 225 224 214 110 26 11 32 116 207 212 210 207 205 203 202 200 199 198 197 196 194 191 190 186 105 29 11 25 90 173 178 177 176 174 171 197 
187 230 228 227 225 227 131 38 43 17 4 10 136 212 208 207 205 203 202 200 199 198 197 196 194 191 193 128 36 45 20 6 7 101 180 177 176 174 171 197 
187 230 228 227 226 214 117 195 163 63 7 3 68 207 208 207 205 203 202 200 199 198 197 196 194 191 187 107 186 172 74 9 3 44 172 177 176 174 171 197 
187 230 228 227 226 211 131 232 179 66 8 4 60 205 208 207 205 203 202 200 199 198 197 196 194 191 184 116 226 193 79 9 3 38 169 178 176 174 172 197 
186 229 228 227 225 225 108 61 61 21 6 4 108 212 209 207 205 203 202 200 199 198 197 196 194 191 192 108 57 64 26 6 3 76 179 177 176 174 172 198 
178 227 228 227 225 226 195 59 6 1 8 67 192 212 210 207 205 203 202 200 199 198 197 196 194 191 190 174 62 7 2 6 49 155 180 177 177 175 173 201 
164 220 229 227 226 224 223 201 140 109 143 200 213 211 210 207 205 203 202 200 199 198 197 196 194 191 188 189 176 124 95 117 167 182 179 177 176 176 178 211 
155 202 230 226 226 224 221 220 222 220 218 214 212 211 210 207 205 203 202 200 199 198 197 196 194 191 189 188 189 190 188 186 183 180 178 177 176 174 189 218 
155 171 222 227 226 224 221 219 218 216 214 213 212 211 209 207 205 204 202 200 199 198 196 195 194 191 190 189 188 186 184 183 181 179 178 177 176 179 209 218 
157 157 186 225 226 224 221 219 218 217 215 212 211 210 208 207 205 204 202 200 199 198 196 195 194 191 190 189 188 186 184 183 182 180 178 177 178 200 218 216 
155 158 159 186 220 224 222 219 218 217 215 212 211 210 208 207 205 204 203 200 199 198 196 195 194 191 190 189 188 186 184 183 182 180 177 180 199 217 218 219 
149 158 159 160 174 200 216 218 218 218 215 213 212 211 209 206 205 204 203 200 199 198 197 196 193 191 189 188 188 186 183 183 181 183 192 206 216 217 216 232 
140 147 158 161 161 165 175 186 193 193 192 194 194 195 195 195 196 197 197 195 197 197 197 198 198 197 198 200 200 199 200 200 204 211 216 215 215 219 232 251 
