P2
#Created with GIMP
40 40
255
249 200 161 158 158 162 172 185 193 195 193 193 194 194 193 193 193 193 193 194 194 195 195 194 193 194 194 195 195 195 195 195 198 206 214 217 214 217 228 247 
208 159 160 161 174 201 216 218 216 216 215 214 212 211 210 209 206 203 202 200 199 198 197 195 193 191 189 188 188 187 184 182 182 183 189 204 215 217 216 227 
171 158 160 184 220 225 220 219 217 217 215 213 212 211 210 208 205 203 202 200 199 197 196 194 193 192 190 189 188 187 185 183 183 181 178 179 196 215 216 216 
162 157 183 225 227 224 221 220 218 217 215 213 212 210 210 208 205 203 202 200 199 197 196 194 193 192 190 189 187 186 185 183 183 180 178 177 176 194 216 216 
160 167 220 229 226 224 221 219 218 217 214 213 212 211 211 209 204 203 203 200 199 197 196 195 193 192 191 189 187 186 185 183 182 180 178 177 176 176 202 216 
157 196 231 228 225 223 221 221 222 221 219 214 211 211 211 209 204 203 203 200 199 197 196 196 194 192 191 189 187 190 187 187 185 180 178 177 177 174 184 212 
161 217 229 227 225 223 223 204 136 100 123 189 214 210 211 209 204 203 203 200 199 197 196 196 194 192 191 192 179 122 85 101 156 182 178 177 177 175 176 206 
169 227 229 227 225 224 200 68 9 1 2 47 178 213 211 209 204 203 203 200 199 197 196 196 194 192 191 179 70 11 3 4 31 140 181 177 177 176 173 194 
174 229 229 228 225 224 125 79 90 38 5 1 82 211 211 209 204 203 203 200 199 197 196 196 194 192 193 121 74 95 46 8 4 56 175 177 177 176 172 191 
176 229 229 228 226 215 126 234 205 88 11 4 41 199 212 209 204 203 203 201 199 197 196 196 194 192 190 125 224 215 99 16 6 27 160 179 177 175 173 191 
175 228 229 228 226 220 115 169 151 61 10 4 52 203 211 209 204 203 203 201 199 197 196 196 194 191 191 113 158 160 70 11 5 33 165 178 177 175 173 191 
175 228 229 228 226 228 157 28 24 10 4 7 123 214 211 209 204 203 203 201 199 197 196 196 194 191 193 146 30 24 14 5 5 90 179 177 177 175 173 191 
175 228 229 228 226 224 221 135 40 19 33 112 205 211 211 209 204 203 203 201 199 197 196 196 194 191 190 189 129 39 18 27 86 170 179 177 177 175 173 191 
175 228 229 228 225 223 223 224 201 178 192 214 212 211 211 209 204 203 203 201 199 197 196 196 194 191 190 189 190 173 153 162 181 180 178 177 176 174 171 190 
175 228 229 228 225 222 222 221 220 220 217 213 212 211 211 209 204 203 203 201 199 197 196 196 194 191 190 189 188 188 187 185 182 180 179 177 176 175 172 190 
175 228 229 228 225 222 222 221 222 222 219 214 211 211 211 209 204 203 203 201 199 197 196 196 194 191 190 189 187 189 189 187 184 180 178 177 177 175 172 191 
175 228 229 228 225 222 223 213 159 125 149 201 213 210 211 209 204 203 203 201 199 197 196 196 194 191 190 191 185 141 108 122 167 182 179 177 176 174 171 190 
175 228 229 228 225 224 208 84 13 5 9 63 188 213 210 208 205 204 203 201 199 197 196 196 194 191 191 183 86 13 5 7 44 151 181 177 177 175 172 191 
175 228 229 228 225 226 132 61 74 32 5 2 93 210 209 207 205 204 203 201 199 197 196 196 194 191 193 128 58 76 37 8 3 64 175 177 177 176 173 191 
175 228 229 228 226 217 122 222 196 85 10 2 42 198 209 208 205 204 203 201 199 197 196 196 194 191 191 124 212 207 97 15 5 28 160 179 177 175 173 191 
175 229 229 228 226 219 118 191 168 68 9 3 47 199 210 208 206 204 203 201 199 197 196 196 194 191 191 117 181 178 78 11 5 30 162 178 177 175 173 191 
175 229 229 228 225 227 143 31 37 15 4 5 110 211 208 208 206 204 203 201 199 197 196 196 194 191 192 138 34 37 18 6 4 79 178 177 177 175 173 191 
175 229 229 228 225 223 216 115 25 8 20 93 201 211 208 208 206 204 203 201 199 197 196 196 194 191 190 188 111 27 9 16 69 165 180 177 177 176 173 191 
175 229 229 228 225 222 222 221 187 159 177 210 214 209 208 208 206 204 203 201 199 197 196 196 194 191 190 190 189 163 136 147 178 182 178 177 176 175 172 191 
175 229 229 228 225 222 222 221 221 220 217 214 212 210 208 208 206 204 203 201 199 197 196 196 194 191 190 189 187 188 188 185 181 180 179 177 176 174 171 190 
175 229 229 228 225 223 222 221 221 220 218 214 212 211 210 208 205 204 203 201 199 197 196 196 194 191 190 189 187 187 188 185 182 181 179 177 177 175 172 191 
175 229 229 228 225 223 222 218 178 150 168 208 212 210 210 208 206 204 203 201 199 197 196 196 194 191 190 190 187 155 129 139 174 182 179 177 176 174 171 190 
175 229 229 228 225 224 215 103 18 7 15 81 195 213 210 208 205 204 203 201 199 197 196 196 194 191 190 187 101 21 7 12 59 160 180 178 176 175 172 191 
175 229 229 228 226 227 142 48 60 27 6 3 103 211 209 208 205 204 202 201 199 197 196 196 194 191 193 134 48 63 30 5 3 71 176 178 177 176 173 191 
175 229 229 228 225 218 121 208 187 80 10 3 44 200 211 208 206 204 203 201 199 197 196 196 194 191 190 119 199 197 92 13 4 29 162 179 177 175 173 191 
175 228 228 227 225 218 121 211 182 73 9 2 43 199 210 208 205 204 203 201 199 197 196 196 194 191 190 119 201 193 86 14 5 28 161 179 177 175 172 191 
174 228 228 227 225 227 137 41 47 20 6 2 98 210 208 208 206 204 203 201 199 197 196 196 194 191 193 130 40 50 25 7 3 68 176 177 176 175 172 191 
167 225 229 227 225 224 212 95 14 7 13 72 192 212 209 208 206 204 203 201 199 197 196 196 194 191 190 186 94 15 8 10 53 156 180 177 176 175 174 198 
157 214 229 227 225 224 223 215 171 142 161 204 213 211 210 208 205 204 203 201 199 197 196 196 194 191 190 191 188 150 120 132 171 182 179 178 177 174 176 208 
151 190 229 227 225 224 222 220 222 222 218 213 211 210 210 208 206 204 203 201 199 197 196 196 194 191 190 189 188 188 188 187 183 180 178 177 177 173 187 214 
153 163 214 228 225 224 222 220 219 217 214 213 211 210 210 208 205 204 203 201 199 197 196 196 194 191 190 189 188 186 184 183 183 180 178 177 176 177 208 216 
153 157 175 219 226 224 222 220 218 217 215 213 212 211 210 208 205 204 203 201 199 197 196 196 194 191 190 189 188 186 184 183 183 180 178 177 177 200 218 216 
153 159 159 175 213 225 223 220 218 217 215 213 212 211 211 208 205 204 203 201 199 197 196 196 194 191 190 189 188 186 184 183 182 180 177 181 200 217 216 216 
144 156 160 161 167 190 210 215 217 216 214 213 212 211 210 207 205 204 203 201 199 198 196 196 194 192 191 190 189 187 185 184 183 186 195 210 218 217 217 231 
142 145 155 158 159 160 166 175 180 184 183 184 184 185 187 187 187 187 188 189 190 191 191 191 192 193 194 195 196 196 196 197 201 208 213 215 216 220 235 251 
