P2
# CREATOR: Image Processing using C-Ansi - ByDu
100  66
255
 21  21  22  21  20  21  21  40 103 148 168 165 152 145 143 135 136 
136 121  82  31  28  26  25  25  26  27  29  30  35  36  40  39  41 
 39  40  41  46  47  55  50  50  45  45  54  52  47  40  42  50  49 
 48  48  46  42  33  21  20  16  12  11  12  17  19  21  23  30  29 
 31  36  37  39  38  35  34  35  40  35  32  33  32  33  30  30  28 
 26  24  24  25  27  25  24  27  30  31  31  31  32  35  35  21  21 
 25  25  23  22  22  38  95 140 160 159 147 140 138 135 135 126  99 
 56  25  27  30  28  26  27  31  30  30  34  36  39  40  41  40  40 
 43  47  48  50  52  50  54  53  56  53  50  43  45  48  46  47  45 
 42  36  29  23  22  20  17  13  12  14  17  18  22  23  29  29  35 
 38  39  38  37  40  38  36  34  33  33  35  31  30  27  26  27  27 
 28  28  28  29  28  30  29  33  34  34  37  38  40  21  23  25  24 
 26  24  22  39  80 128 151 155 144 137 133 133 130 117  89  28  30 
 30  31  29  28  31  31  31  31  35  37  42  40  43  43  43  46  49 
 54  48  51  52  57  55  51  50  41  40  40  41  38  40  39  34  31 
 28  22  21  21  20  17  15  15  14  14  16  19  21  26  28  29  34 
 34  34  34  38  36  35  35  36  36  34  36  31  28  29  29  30  30 
 32  29  32  31  39  34  34  39  40  38  39  19  22  24  24  27  26 
 23  33  65 116 143 146 138 137 136 133 127  97  57  36  34  31  31 
 30  30  32  30  31  30  32  34  41  43  44  48  49  48  48  47  50 
 53  57  56  58  51  48  45  39  37  39  36  37  34  32  30  29  24 
 24  23  22  20  17  16  14  13  14  19  21  25  24  26  29  33  32 
 32  35  34  34  36  38  38  38  40  40  36  35  32  33  32  32  29 
 31  32  36  38  40  41  37  41  40  19  21  23  23  24  24  24  34 
 64  95 124 137 138 138 137 128 111  83  47  38  37  31  28  29  29 
 31  30  30  36  33  35  37  42  43  46  48  52  50  49  50  51  49 
 51  52  51  45  45  42  35  31  32  32  34  32  29  29  30  30  31 
 27  28  22  18  17  16  17  19  22  23  25  26  30  29  33  33  32 
 34  33  31  31  35  40  46  43  41  35  35  34  30  30  27  31  33 
 38  40  40  40  40  39  37  19  19  22  22  23  26  28  29  54  69 
 90 113 120 131 129 112  82  48  43  40  38  29  26  28  29  32  32 
 33  33  34  34  36  39  39  42  43  49  50  50  51  49  43  49  51 
 44  47  45  39  34  32  30  32  34  30  28  30  31  29  35  36  32 
 29  21  21  19  18  19  21  24  25  27  32  31  30  31  30  29  30 
 30  31  34  37  41  41  42  41  38  37  31  33  31  31  34  38  42 
 44  44  41  41  38  22  22  23  24  23  26  27  29  38  48  51  71 
 84 102 100  80  45  39  39  36  33  30  27  29  32  33  32  30  28 
 30  33  32  36  36  37  40  44  47  53  53  50  45  46  45  44  47 
 44  38  34  31  27  26  30  29  32  30  39  33  37  37  34  29  23 
 23  21  20  19  20  21  21  22  25  26  27  27  27  29  28  31  31 
 33  34  35  36  35  34  37  34  34  31  31  31  33  39  43  45  48 
 47  44  40  23  23  26  26  27  28  29  30  31  31  31  36  54  57 
 55  41  38  38  36  34  31  35  32  32  30  30  29  28  28  28  28 
 32  34  34  38  36  49  48  49  51  46  46  37  42  44  47  45  42 
 39  32  25  25  27  31  31  34  36  37  35  35  34  28  24  23  23 
 22  21  21  21  21  21  21  21  22  25  26  28  29  32  35  37  38 
 37  35  33  33  33  34  35  33  31  29  33  38  39  44  44  40  35 
 35  22  23  23  29  31  30  32  32  32  32  29  35  38  42  41  41 
 41  39  36  34  33  33  34  34  33  34  35  36  34  32  31  36  37 
 38  39  39  40  45  49  46  44  40  39  38  42  45  43  40  41  34 
 28  26  26  28  29  33  34  34  38  36  33  30  29  29  28  27  25 
 27  23  23  22  22  22  23  23  24  31  32  35  40  42  44  42  39 
 48  37  37  37  38  37  31  31  32  37  37  35  35  33  37  32  22 
 24  27  28  30  30  32  33  33  34  33  34  40  35  38  36  32  33 
 35  35  35  36  38  42  40  45  43  41  39  37  36  37  38  39  38 
 37  37  41  45  49  42  39  37  37  42  44  44  42  41  38  30  29 
 28  29  30  31  33  34  32  39  36  37  37  39  30  32  29  30  28 
 23  24  25  25  25  23  25  30  36  40  46  44  43  45  43  40  40 
 38  38  37  36  31  30  31  32  35  35  37  32  34  34  22  26  27 
 29  31  30  29  31  30  30  34  32  32  32  31  30  30  29  30  33 
 35  38  40  46  42  46  46  49  43  40  39  37  36  37  36  33  33 
 36  42  44  41  38  38  37  40  42  42  41  38  36  34  32  30  31 
 28  32  33  35  36  39  38  39  38  41  34  33  33  30  27  25  26 
 25  25  25  23  23  26  32  41  45  40  42  48  42  43  45  43  41 
 37  35  31  28  26  27  27  29  28  27  26  26  26  26  28  27  29 
 30  30  30  30  31  29  29  27  28  27  27  26  26  29  33  34  38 
 40  42  42  46  46  49  43  39  38  36  36  38  35  32  31  32  33 
 32  30  34  34  37  39  40  42  43  42  43  41  37  34  36  36  35 
 39  41  40  41  41  40  44  37  34  34  32  28  25  25  26  25  22 
 21  21  22  22  27  29  37  34  38  40  39  41  39  38  37  33  30 
 28  24  23  24  26  26  24  23  22  22  26  27  28  29  30  29  30 
 30  33  33  32  29  25  22  23  23  23  23  24  27  34  37  35  43 
 45  46  47  48  44  40  39  37  35  36  33  29  28  28  27  24  24 
 26  27  34  38  39  41  45  46  47  44  45  38  30  35  37  37  42 
 45  45  45  45  39  36  32  32  27  23  42  58  22  21  20  20  19 
 19  19  21  28  26  27  29  38  37  30  36  33  31  24  27  26  21 
 21  23  23  26  24  23  21  19  24  26  28  32  31  31  31  33  33 
 35  32  29  26  22  22  22  21  21  23  27  30  34  39  41  46  50 
 50  50  44  38  37  35  33  34  30  27  24  22  22  19  18  19  24 
 29  30  36  40  46  48  48  48  48  45  39  34  35  33  40  42  45 
 46  39  36  30  29  27  23  19 144 149  66  81  44  19  16  14  14 
 18  21  22  21  24  25  31  32  29  30  27  29  30  25  23  21  22 
 26  29  28  28  23  22  23  24  29  32  31  31  32  29  36  35  33 
 32  29  26  23  22  23  23  27  30  29  34  39  42  47  49  51  49 
 43  40  35  31  28  29  23  21  20  20  21  21  18  19  22  26  35 
 40  44  50  51  51  53  53  53  50  44  40  31  32  35  35  42  34 
 29  27  24  25  60 100 148 155 163 201 200 182 179 183 174 164 148 
 33  16  19  22  26  26  29  30  32  33  35  33  31  26  29  34  34 
 36  36  32  24  23  25  27  31  30  32  30  33  36  37  33  33  30 
 26  24  25  28  27  26  29  30  34  39  39  45  48  48  44  42  37 
 33  30  26  25  22  21  21  21  21  22  19  21  24  30  40  42  50 
 53  54  59  63  63  65  53  50  47  42  41  37  36  32  31  29  27 
 29 176 158 149 151 157 173 186 189 188 178 181 188 195 204 174  15 
 17  18  23  24  26  32  37  39  39  38  30  27  31  36  37  42  46 
 46  44  18  23  23  26  29  29  30  32  32  31  32  30  28  23  26 
 28  29  29  28  26  29  31  36  39  39  39  42  42  42  35  32  28 
 23  22  18  17  17  18  18  20  19  22  26  33  42  46  53  55  61 
 67  73  71  70  63  57  51  47  45  41  40  36  34  31  26 169 159 
148 142 150 156 171 179 179 181 169 181 192 195 207  64  16  17  19 
 19  20  25  30  38  40  41  38  33  28  30  42  46  50  54  59  52 
 13  14  18  22  26  28  29  29  29  29  29  28  22  22  24  26  29 
 30  28  26  28  29  32  33  33  30  30  32  30  32  29  24  19  17 
 15  15  12  12  14  18  18  22  27  33  42  47  51  52  65  71  74 
 77  78  72  61  52  51  51  48  45  40  37  34 113 170 149 142 144 
148 161 167 173 170 167 172 181 185 185 201  26  23  25  24  23  24 
 31  31  33  38  39  34  26  25  30  39  48  53  57  60  52  10  12 
 13  17  21  23  26  28  29  29  30  28  24  26  23  22  26  28  28 
 28  26  28  29  28  26  26  27  24  21  21  21  18  18  16  16  14 
 12  12  15  17  19  23  27  34  39  48  51  55  66  73  81  82  83 
 78  66  58  56  57  55  47  44  44  39 172 157 146 144 146 147 167 
172 173 161 160 158 172 174 184 190  29  33  34  33  44 147 153 168 
180 193 191 191 189 196 186 154 147  43  52  53  48  10  12  12  13 
 18  21  23  26  29  29  30  29  26  24  26  23  26  26  26  26  28 
 29  29  29  26  27  24  24  22  21  20  19  21  19  18  15  13  13 
 16  18  19  24  27  34  39  45  54  59  72  77  80  82  81  96  85 
 62  61  60  58  53  50  49  42 170 157 147 144 146 159 167 170 163 
156 152 142 150 164 172 192  44  40  36 173 152 158 196 189 191 184 
182 182 175 178 180 176 150 145  38  42  44  14  13  14  13  17  21 
 22  23  26  27  29  29  29  28  28  28  29  28  29  29  29  31  31 
 30  28  27  25  24  24  22  22  23  23  24  22  21  19  21  23  22 
 23  26  29  35  40  44  51  56  63  78  96 106  89  77  67  62  60 
 61  56  56  60  51  42  50 156 150 148 149 167 172 163 146 137 139 
139 144 152 168  99  47  41 130 144 189 174 185 162 177 173 171 185 
186 179 185 179 175 155 143  37  17  17  17  15  16  17  19  21  23 
 24  25  28  30  31  30  30  30  32  30  28  28  30  30  31  30  27 
 26  26  26  26  25  24  25  26  26  26  23  22  22  25  27  28  30 
 32  35  41  44  47  50  61  63  53  50  74  80  58  55  55  55  56 
 56  56  51  45  70 146 156 151 160 169 169 159 135 139 130 134 133 
147 166  39  44 118 159 178 161 184 152 181 152 159 150 152 168 168 
162 159 170 180  23   1  11  18  19  18  18  19  19  20  21  22  21 
 23  26  29  29  29  30  31  31  28  28  30  29  29  28  26  24  23 
 24  28  27  26  27  30  30  28  26  26  24  27  31  33  34  34  38 
 41  43  51  46  50  60  63  64 128 105 101  66  50  52  50  50  50 
 47  40  33 173 157 156 167 173 164 149 138 130 126 132 118 143 165 
 36 110 148 150 145 172 157 162 159 167 180 159 166 143 134 129 146 
144 164 168 164   6  19  19  19  20  19  19  19  19  19  19  20  21 
 23  29  30  28  28  29  28  29  30  29  23  22  21  22  21  23  26 
 25  29  29  30  30  28  27  28  29  32  37  38  38  38  43  43  44 
 47  48  49  50  56  55 139 126  85 100  72  47  44  45  44  42  39 
 36  31 162 155 173 175 159 143 133 115 108 127 103 129 142  96 128 
148 146 136 132 135 144 168 139 143 164 156 158 183 189 182 149 131 
141 150   7  19  19  19  20  21  19  19  21  19  20  21  21  23  26 
 26  25  25  25  25  28  26  23  21  19  18  17  17  19  22  25  30 
 31  30  29  30  26  30  32  34  37  40  39  40  42  45  45  48  48 
 44  46  56 110  39  82 148 159 162  27  38  38  40  37  37  33  33 
 28 159 175 169 154 129 131 113 107 113  86 117 132 101 129 108 129 
126 141 112 168 140 160 190 154 184 159 161 164 158 164 145 157 244 
  8  19  19  19  20  21  19  19  21  21  21  22  22  25  26  28  26 
 27  28  25  25  23  22  19  19  17  16  17  19  21  22  28  29  32 
 33  38  39  39  40  39  37  37  35  37  40  45  46  47  48  49  44 
 42  91 139 134  93 111  94  69  30  32  31  32  32  31  32  33  10 
177 157 140 146 127 116 102  90  94 103 121 120 117 117 116 128 106 
139 122 172 172 187 185 143 180 179  47  55   3   4   7  10  11  18 
 19  18  18  18  18  18  21  22  22  23  23  24  27  30  32  33  32 
 27  26  23  23  22  21  18  16  17  18  19  20  24  28  32  38  42 
 46  45  43  44  36  36  36  36  39  39  42  46  47  49  49  47  41 
 87 113 103 152 175  91  86  32  31  31  27  23  45  41  54 156 164 
145 131 125 105  97  88  80  80 111 109  98  92 105 109 115 142 185 
193 184 188 204 217 123  50  47  45  11  11  11  11  12  17  18  17 
 17  17  18  18  21  21  23  24  25  26  29  32  32  33  32  29  27 
 25  24  22  20  18  16  17  18  19  20  23  29  37  41  49  51  51 
 47  46  42  39  36  35  35  33  36  39  42  49  49  49  48  77  77 
155  86 142  81 137  55 146  83 162 164 154 152 147 134 133 173 140 
117 104  92  85  74  66 109  87  81  77  83 116 180 185 197 204 232 
  5  73  77  67  53  51  19  11  12  12  13  14  17  17  18  16  14 
 17  17  18  21  21  21  21  23  26  31  32  32  31  31  30  27  24 
 22  21  18  16  14  17  19  21  26  30  37  43  45  50  51  45  45 
 41  38  36  33  29  28  30  34  41  42  43  39  39 136  26 106 133 
 90  97 137 113 177 188 187 177 170 156 146 152 130 104 131 126  99 
 83  77  69  59 106  70  66  66  83 145 166 216 213   7  13  20  85 
 77  65  53 112  16  12  11  17  24  39  16  16  15  15  14  12  13 
 15  18  18  19  21  22  26  30  31  32  31  33  32  27  26  22  21 
 17  16  14  17  18  22  28  32  35  36  44  45  48  47  43  37  37 
 33  30  28  28  29  30  32  32  32  32  30  29  47  84   3  67  84 
113 179 176 199 173 196 180 175 143 128 128 121 115 105 103  82  74 
 64  62  94  63  59  58  77 189 191 206   6  11  15  53  92  72  60 
 94  76  39  24  26  31  46  43  11  11  11  11  12  12  13  16  18 
 18  19  21  22  23  27  28  29  29  30  29  28  26  22  21  18  17 
 15  18  18  19  22  26  31  36  39  38  40  38  35  36  32  32  27 
 24  26  25  26  26  24  24  23  22  21  10  50 145  81  49  70 181 
178 163 180 127 153 133 140 137 115 119 117 114 114 103  70  68  65 
 68  58  52  46 205   4  27  32  38  46  62  92  89  71  80  94 101 
 96  60  24  32  29  30  10  10   8   8  11  12  12  13  15  17  18 
 19  21  21  22  23  26  26  28  26  26  24  22  22  21  20  17  18 
 19  19  22  25  27  32  36  38  39  39  38  39  35  32  27  25  22 
 23  22  21  22  22  18  18  16  15  37  13   1  96 131  41  87 192 
180 162 148 137 123 119 119 114 103  97  98 101  90  63  63  62  54 
 50 203  39  37  41  46  66  69  75  91  88  73  93  73  93 102  83 
 29  27  23  25   7   7   8   8   9  10  10  11  11  13  15  16  18 
 19  18  21  25  25  25  25  24  23  22  21  19  18  17  17  18  18 
 21  26  29  32  35  38  39  43  40  39  34  29  25  21  21  19  19 
 19  18  17  13  14  11  11   9   5  70 111 159 193 133  49  76 115 
102 153 150 136 112 103  90  87  83  79  78  83  57  59  48 159  51 
103 101  98  95  70  19  14  31  46  61  87  66  91  92  47  20  20 
 33  45   7   7   8   8   7   8   8   8   9  11  12  15  17  17  17 
 18  21  22  22  22  22  21  21  19  18  18  17  16  16  18  21  26 
 29  34  36  39  39  41  40  37  34  25  23  21  19  19  19  18  15 
 10  11   9   7   7   5   5   0 169  36 144 156 136 174  73  58  85 
103 111 120 111  95  81  77  75  68  65  58  53 155  82  84  95  94 
106 116 112 116 106 118  31  33  52  33  43  41  18  17  19  37  38 
  7   7   8   9   8   9   8   7   8   9  11  12  14  14  14  15  15 
 17  18  18  18  19  19  17  18  18  17  15  17  19  21  23  28  33 
 34  36  37  36  37  37  31  26  22  21  19  17  17  15  12   9   8 
  7   5   3   1   1 105 173 182 194 161 147 147 150 154  98 162 152 
 92  72  71  85  88  93  92  85  61  47  69  58  74  89  94 100 109 
119 131 139 135 130 119  11  15  24   7  11  18  29  30  39   7   7 
  8   8   8   9   8   7   6   7   7   8  10  10   8   8   9  11  11 
 12  13  13  15  14  17  17  16  15  18  19  21  23  25  26  27  29 
 30  30  31  31  30  25  21  20  16  14  14  12  10   7   7   7   3 
  3   1   1 166 180 170 178 160 176 175  48 168 160 161 150 137 110 
104  94  82  63  55  56  48  46  38  59  76  92 112 117 135 144 143 
136 131 127 130 131 204  14  14  22  25  24  31  70   7   7   7   7 
  8   8   7   6   5   5   5   6   5   4   4   4   5   7   6   7   8 
 11  13  13  14  13  15  15  17  18  19  21  22  22  23  23  24  23 
 23  25  25  21  19  18  17  15  13  11   8   7   4   4   2   1   1 
 86 172 172 178 175 170 173 166 161 153 112 172  26  91 106 107 102 
 81  70  56  45  44  44  61  74  78 105 109 133 142 140 146 148 151 
136 127 120 125 118  63  60  32  29  91 116   6   6   7   7   7   7 
  7   7   5   5   5   5   4   1   2   2   3   3   5   7   7  10  12 
 12  12  11  13  15  16  15  17  19  18  18  19  19  21  21  21  21 
 21  21  20  18  17  15  12   8   4   3   3   3   1   1  11 163 172 
163 161 163 163 140 143 123 161 156 117 123 128 123 115 104  87  68 
 67  55  31  46  71  87  86 132 146 130 144 150 157 151 151 147 138 
131 134 118  60  56  63  82  86  28   6   5   7   7   6   6   5   7 
  5   5   5   5   3   2   1   2   2   2   3   4   4   5   8   8   8 
  8   8  10  13  13  15  17  16  16  17  18  21  19  20  21  19  19 
 18  16  13  13  10   5   4   3   2   3   2   2 145 172 165 161 161 
146 129 122 185 149  74 116 130 139 131 124 105  97  88  51 139 111 
 98  91 102 118 138 148 150 156 146 155 155 149 151 149 141 147 133 
136 105  64  45   7   7   5   5   6   4   4   5   7   7   5   5   5 
  5   4   3   2   2   2   2   2   3   3   4   4   4   7   5   5   8 
  8  11  12  13  13  15  15  17  18  18  18  18  17  17  16  17  15 
 12   9   7   5   4   4   4   4   1 133 166 153 151 146 127 124 191 
155   1   2 130 142 145 127 135 131 104 110  98  85 137 168 140 146 
131 138 164 158 155 142 151 158 162 153 147 146 135 141 134 132 135 
135   8  10  10  18   6   6   4   4   4   4   4   5   3   3   3   3 
  2   2   2   2   2   2   2   2   2   2   3   4   5   6   7   7   9 
  9  11  11  13  14  14  15  15  15  16  15  14  11  11  10   8   7 
  5   5   4   4   4   4   1 156 139 139 136 125 201 154  51   2   2 
129 135 135 149 158 151 112 125 128 106 134 124 182 174 179 172 140 
145 163 158 157 150 141 160 142 146 140 134 130 140 129 135 137   8 
 20  16  25   5   6   4   4   4   4   4   5   3   2   4   3   2   2 
  2   2   2   2   2   2   2   2   3   4   5   5   7   7   9   9  10 
 11  12  12  12  12  11  12  12  11   9  10   7   7   5   7   5   5 
  4   4   4   4   3 136 124 126 148 112   4   4   4   4   3 130 140 
153 162 144 114 132 136 139 132 137 135 155 178 178 178 176 153 170 
156 152 162 158 150 150 144 141 135 134 135 138 120 134   1  12  27 
 33   5   5   5   5   5   4   4   4   3   3   3   3   3   3   3   3 
  3   3   3   3   3   3   3   4   5   5   8   7   7   8   8  10   8 
  8   8   8   7   7   7   6   6   6   5   5   5   4   4   5   5   5 
  5   5   4 104 117 120 139   2   5   5   7   5 150 135 142 167 150 
135 142 147 149 129 141 140 129 171 191 175 180 171 168 165 156 156 
152 156 157 147 147 145 133 127 140 141 123 126   4  12  19  24   5 
  5   5   5   5   4   4   4   4   4   4   4   4   4   4   4   4   4 
  4   4   4   4   4   4   5   5   7   8   7   8   8   8   7   7   6 
  5   4   4   5   5   5   5   5   6   5   5   5   5   7   7   5   5 
  5   3  24 113 128   4   8   8   9   2 134 150 167 138 141 153 153 
151 152 156 135 137 116 207 185 172 173 168 164 169 153 149 150 139 
153 147 139 138 126 137 123 136 150 147   8  10  11  14   5   5   5 
  5   5   5   5   7   7   7   7   7   7   7   7   7   6   7   5   6 
  5   5   5   6   5   6   7   8   8   7   7   6   6   6   5   5   5 
  7   7   6   7   8   8   8   8   8   8   8   8   8   8   9   9   9 
 11   7   5   9   9  13   9 147 149 161 147 154 145 158 155 155 146 
155 150 147 128  75 174 180 163 166 157 165 147 149 146 146 152 147 
147 129 126 123 116 130 135 138   9  11   9  10   7   7   5   5   7 
  7   7   7   7   7   7   7   6   7   7   8   9   8   8   7   9   7 
  7   8   7   7   8   8   7   7   7   6   6   6   7   7   7   7   8 
 10   9  10  10  10  10  11  11  10  11  11  11  12  12  12  12  13 
 14  14  14  15  11 156 159 153 157 143 159 139 151 160 158 145 154 
128 128  94   3 181 180 161 165 156 155 150 148 145 137 145 141 137 
123 116 119 104 179 192  11  11  11  11   8   8   8   8   8   9   9 
 10  10   9   9  10   8   9   9  11  12  12  10  10  12  12  13  11 
 11  11   9  10  10  10  11  10  10   9  11  11  11  14  12  14  14 
 13  14  13  13  15  15  14  15  15  15  17  17  17  16  17  18  19 
 19  19   8 150 154 163 153 153 144 141 160 158 152 141 143 135 125 
126   2 193 171 175 150 152 147 144 142 145 140 128 122 126 124 118 
 91 145   8  12  11  11  11  11  11  11  12  12  11  12  12  11  12 
 12  12  12  12  13  13  12  13  17  13  14  14  16  14  13  13  14 
 12  12  12  12  12  12  13  13  14  13  13  14  17  16  16  17  17 
 17  17  18  18  18  19  19  21  21  21  21  23  24  25  25  24  23 
 44 151 136 151 139 148 143 148 154 147 133 136 141 125 124 116   5 
 13 208 169 148 161 148 146 131 125 115 124 119 114 118 119 117   2 
 12  12  12  13  11  10  12  12  14  15  14  13  13  13  15  16  17 
 17  17  18  17  17  17  17  17  18  19  18  18  18  17  13  16  17 
 17  15  16  16  17  17  17  17  17  18  19  19  21  21  21  21  22 
 22  22  22  23  23  25  25  26  25  26  29  29  30  27  26 145 139 
145 144 155 145 131 146 147 141 142 127 134 124 130 122  71  20  18 
 13 170 101 147 141 101 128 111 114 118 111 141  85 128  14  13  12 
 12  12  11  10  14  14  16  17  17  17  17  17  18  18  20  21  19 
 22  22  22  22  21  21  22  21  22  21  21  22  21  19  19  20  19 
 19  20  19  20  19  21  21  22  22  23  26  24  24  24  26  26  27 
 27  28  28  29  29  30  30  31  33  33  33  31  30 141 134 142 136 
137 134 148 137 137 133 132 127 115 114 114 126  96  23  24  23  21 
 21 138 121 108 110 104 105 103 118 129  18  17  17  13  13  11  11 
 11  11  19  19  19  19  21  21  22  21  23  24  23  23  25  26  26 
 26  28  27  26  26  23  25  25  25  26  24  24  26  24  23  23  24 
 23  23  23  24  24  26  28  29  29  29  30  30  30  30  30  32  34 
 34  32  33  34  34  35  35  36  37  36  34  68 143 143 134 145 129 
146 131 132 123 123 125 132 114 119 121 104  29  29  29  28  28  26 
  8 105 107 105 103 113  11  22  21  17  16  12  13  12  13  10  10 
 19  21  21  22  24  23  25  26  28  29  29  29  29  30  30  31  31 
 32  30  32  30  29  29  28  29  30  29  30  28  28  29  29  28  29 
 29  29  29  30  32  33  33  34  34  33  34  33  33  34  36  36  38 
 37  38  37  41  39  41  40  38  38  22 138 140 126 126 124 127 138 
121 125 110 112 115 113 118 121 100  32  31  32  32  32  30  30  15 
 95  41  30  31  31  25  18  18  14  12  13  12  13  11  11  22  23 
 23  26  27  29  29  29  32  32  33  33  33  33  35  35  34  35  33 
 34  34  31  31  30  31  31  32  32  34  32  33  33  32  34  35  36 
 36  35  36  36  38  39  37  37  38  38  38  37  38  38  42  41  42 
 42  43  46  44  44  43  41  30 144 123 123 133 132 112 116 112 113 
116 125 117 127 120 123  19  36  35  37  36  36  36  37  34  34  34 
 36  37  27  18  21  17  12  13  13  12  12  12  12  24  26  28  29 
 30  29  29  32  36  37  34  36  38  38  38  39  37  36  37  36  35 
 34  34  32  32  32  35  35  35  36  36  37  37  37  38  37  37  39 
 39  41  41  41  41  40  38  40  40  40  41  42  44  44  46  46  46 
 44  45  45  45  44 161 128 106 125 117 125 142 109  97 122 111 111 
119 121 121 111  34  39  39  39  41  41  39  39  40  39  40  40  41 
 29  19  17  13  14  14  13  12  12  12  14  27  29  30  32  32  33 
 33  37  38  37  38  41  41  41  41  41  41  41  40  40  39  36  35 
 35  36  36  38  38  38  40  40  40  40  41  40  39  41  42  43  42 
 44  44  43  44  44  44  44  44  44  45  45  46  46  48  48  47  45 
 45  46  47  78 126 127 121 112 126 110 117 116 130 108 113 119 120 
127 131  37  42  42  42  44  44  43  42  43  42  42  45  43  32  17 
 15  13  14  14  14  14  18  14  39  29  30  32  32  33  36  36  37 
 40  40  41  41  42  44  44  45  45  44  41  40  40  40  37  37  37 
 38  41  41  41  42  43  43  45  44  44  44  45  45  44  46  46  47 
 44  47  46  51  47  46  47  48  48  49  49  49  47  46  47  45  46 
 45  41  93 120 112 107 102 125 122 115 119 112 106 113 104 133  40 
 43  45  45  44  47  46  46  47  47  48  47  47  47  45  15  18  16 
 15  15  13  13  19  32  46  29  30  34  36  36  38  36  40  38  42 
 40  42  43  45  47  45  46  46  44  44  44  42  42  39  39  39  41 
 42  44  44  44  46  48  49  48  47  47  47  47  49  49  49  48  50 
 49  50  50  50  51  50  56  50  47  52  50  50  47  48  45  45  45 
 44  84 104  99 105 114 116 130 105 121 127 121 113  45  46  49  49 
 49  50  49  49  49  49  52  49  50  50  51  49  32  19  18  18  17 
 17  14  47  49  49  30  32  34  35  36  39  38  41  42  42  40  41 
 44  45  47  47  46  46  46  46  45  44  43  41  42  41  43  44  46 
 45  48  49  49  49  50  50  51  51  51  52  51  52  52  53  53  51 
 56  52  53  54  54  53  52  53  52  54  50  49  46  46  46  47  49 
 43 103  98 102 116 116 125 128 121 120  46  49  50  51  52  53  55 
 53  53  53  53  54  52  53  54  54  55  58  20  21  21  19  19  45 
 54  53  51  31  33  35  36  39  39  42  38  42  42  38  43  43  46 
 46  47  47  48  46  47  47  47  43  48  44  45  46  47  47  49  49 
 49  50  49  52  52  53  54  55  56  56  54  55  56  56  57  55  55 
 57  57  58  58  56  55  53  55  54  52  50  50  51  51  49  53  42 
 98 121 128  89 119 164 128  42  52  56  54  54  55  61  54  57  56 
 53  56  52  57  56  60  56  60  81  47  21  20  34  50  60  54  53 
 53  32  34  36  38  38  40  44  43  43  44  43  45  44  45  46  47 
 49  48  47  47  48  47  48  44  45  45  47  49  49  49  49  52  51 
 53  54  55  56  56  56  58  58  59  58  61  58  58  58  58  59  59 
 60  59  57  58  58  56  55  55  52  53  54  54  54  56  56  60  56 
111 110 136  54  57  58  58  57  59  58  56  57  57  57  58  57  59 
 59  59  54  57  58  59  63  80  55  17  64  58  56  55  53  52  36 
 36  38  37  40  43  42  42  50  45  44  46  45  47  48  48  48  49 
 47  49  48  48  46  46  45  47  47  49  49  47  51  50  53  54  57 
 58  59  57  57  60  60  60  60  61  60  60  60  62  62  62  61  61 
 61  61  59  59  58  56  56  54  58  56  59  59  59  61  62  62  62 
 63  60  61  62  62  61  61  62  59  60  60  66  61  59  60  60  60 
 61  59  62  61  62  67  62  71  59  58  57  59  56  55  34  41  40 
 40  42  44  45  44  46  46  45  46  45  48  49  50  49  50  52  50 
 53  49  48  47  47  49  49  51  51  51  53  55  55  53  56  58  59 
 60  60  61  61  61  61  65  62  61  61  62  62  63  62  63  63  63 
 62  61  60  60  58  58  58  59  60  61  63  65  65  66  64  65  66 
 65  65  66  66  64  65  65  64  64  63  64  60  61  61  60  62  62 
 64  63  63  63  63  62  61  60  58  58  58  58  40  44  43  44  45 
 46  47  48  49  49  48  49  50  50  51  50  48  52  53  51  54  52 
 51  47  49  51  50  51  52  51  54  55  56  54  58  58  59  63  60 
 62  61  61  62  62  62  62  62  62  64  67  63  63  64  64  65  62 
 61  61  59  59  58  60  61  63  60  66  66  66  66  66  67  67  65 
 67  68  68  69  68  69  69  68  69  68  68  68  67  65  66  65  66 
 66  64  64  63  63  58  61  61  56  57  45  45  44  48  48  46  52 
 52  51  49  48  51  50  50  50  52  51  53  52  54  52  51  51  51 
 52  52  52  52  53  54  56  58  60  60  58  60  61  62  62  63  57 
 62  64  61  63  64  62  62  64  64  64  64  66  64  64  63  64  61 
 61  60  62  61  62  64  65  65  65  68  69  68  66  68  67  68  68 
 71  70  71  72  72  70  71  72  69  70  70  68  69  68  66  66  67 
 66  66  66  66  64  63  59  63  45  48  50  50  50  51  53  52  53 
 53  52  53  52  51  53  51  51  51  51  53  48  54  54  54  54  52 
 54  54  57  56  58  60  61  62  60  63  62  62  63  63  64  63  62 
 64  62  62  64  62  64  64  64  67  67  66  64  65  59  62  62  62 
 62  63  63  64  64  64  65  67  67  67  67  68  66  68  73  71  71 
 70  74  74  73  72  73  72  67  71  72  73  70  69  69  72  67  68 
 67  65  70  66  67  64  51  50  51  52  53  55  54  55  56  58  54 
 53  56  54  52  51  51  51  52  55  55  55  55  56  55  56  55  57 
 58  57  60  60  62  63  65  65  64  64  64  66  64  66  65  63  62 
 62  62  64  64  65  63  66  66  66  64  64  61  64  63  64  63  63 
 63  64  64  65  65  68  66  68  67  68  66  66  68  70  74  71  73 
 73  72  74  75  75  75  74  71  73  73  71  71  67  69  71  67  68 
 69  69  70  70 