P2
# CREATOR: Image Processing using C-Ansi - ByDu
40  40
255
 17  73  98  97  97  91  76  65  59  59  59  59  58  58  60  61  60 
 61  62  61  59  61  61  60  61  62  62  62  62  63  63  62  59  48 
 41  39  39  38  25   4  72  97  95  93  70  47  36  35  36  37  39 
 41  42  43  45  48  50  52  53  55  56  58  59  60  61  64  66  68 
 69  70  72  74  75  73  64  48  38  38  39  24 101  98  92  57  30 
 30  34  36  37  38  40  42  43  44  46  49  51  52  53  54  56  58 
 59  60  62  64  65  66  68  70  70  72  74  76  79  76  55  39  38 
 34 101  96  58  28  30  31  34  35  38  38  40  43  43  44  46  49 
 51  52  52  54  56  59  59  60  63  65  65  66  68  70  70  72  74 
 75  78  78  78  55  38  36 102  73  28  29  31  31  34  35  37  38 
 41  43  43  44  46  48  51  52  52  54  56  59  59  60  62  65  65 
 66  68  70  70  72  73  75  78  78  79  77  46  35  96  43  26  29 
 30  31  33  33  34  37  39  42  43  44  46  49  51  52  53  55  56 
 58  59  60  62  65  65  66  65  67  70  71  73  76  78  78  79  82 
 65  36  80  28  27  28  30  31  31  77 153 171 137  62  41  45  46 
 49  51  52  53  55  56  58  59  60  62  65  65  64  95 165 185 160 
 97  73  77  78  79  81  78  41  67  26  27  28  30  29  93 223 246 
253 251 196  65  43  46  48  51  52  53  55  56  58  59  60  62  65 
 63 104 219 245 252 251 214 101  74  78  79  80  82  48  60  25  27 
 29  29  40 163 144 158 223 250 251 140  41  46  49  51  52  53  55 
 56  58  59  60  62  65  68 165 148 153 216 248 252 173  75  78  79 
 80  83  51  59  24  27  28  28  57 103   3  72 192 248 252 174  43 
 48  49  51  52  53  55  56  58  59  60  62  64  79 125   6  61 182 
247 252 206  82  79  79  80  83  51  58  24  27  28  29  45 154 100 
141 219 249 253 155  41  47  49  51  52  53  55  56  58  59  60  62 
 65  72 161 104 133 212 250 253 189  77  78  79  81  83  51  57  24 
 27  29  30  29 125 238 242 250 253 225  82  41  46  49  51  52  53 
 55  56  58  59  60  62  65  63 129 235 240 250 253 237 122  75  78 
 79  80  83  51  57  24  27  29  30  31  36 122 203 216 186  94  41 
 44  46  49  51  52  53  55  56  58  59  60  62  65  65  68 131 205 
222 202 126  74  78  78  79  80  83  51  57  24  27  29  30  31  32 
 32  47  56  46  40  43  44  46  48  51  52  53  55  56  58  59  60 
 62  65  65  65  64  76  87  77  71  75  78  78  79  81  83  51  58 
 24  27  29  30  31  34  35  37  38  41  42  43  44  46  49  51  52 
 53  55  56  58  59  60  62  65  65  66  68  70  70  72  73  75  78 
 78  79  80  83  51  58  24  27  29  30  31  34  36  37  38  41  43 
 44  44  46  48  51  52  53  55  56  58  60  61  63  64  65  67  69 
 70  71  72  74  75  77  78  79  80  83  51  58  24  27  29  30  32 
 34  36  38  38  42  43  44  45  46  48  51  52  53  55  56  58  60 
 62  63  64  66  67  69  70  71  72  74  75  77  78  79  81  83  51 
 58  24  27  29  30  32  34  36  38  38  42  43  44  45  46  48  51 
 52  53  55  56  58  60  61  63  64  66  67  69  70  71  72  74  75 
 77  78  79  81  83  51  58  24  27  29  30  32  34  36  38  38  42 
 43  44  45  46  48  51  52  53  55  56  58  60  61  63  64  66  67 
 69  70  71  72  74  75  77  78  79  81  83  51  58  24  27  29  30 
 31  34  36  38  38  42  43  44  45  46  48  51  52  53  55  56  58 
 60  61  63  64  66  67  69  70  71  72  74  75  77  78  79  81  83 
 51  58  24  27  29  30  31  34  36  38  38  42  43  44  45  46  48 
 51  52  53  55  56  58  60  61  63  64  65  67  69  70  71  72  74 
 76  77  78  79  81  83  51  58  24  27  29  30  31  34  36  37  38 
 42  43  44  45  46  48  51  52  53  55  56  58  60  61  62  64  65 
 67  68  70  71  72  74  76  78  79  80  81  83  51  58  24  27  29 
 30  31  34  36  37  38  42  43  44  45  46  48  51  52  53  55  56 
 58  60  61  62  64  65  67  68  70  71  72  74  76  78  79  80  81 
 83  51  58  24  27  29  30  31  34  36  37  38  42  43  44  45  46 
 48  51  52  53  55  56  58  60  61  62  64  65  67  68  70  71  72 
 74  76  78  79  80  81  83  51  58  24  27  29  30  31  34  36  38 
 38  42  43  44  45  46  48  51  52  53  55  56  58  60  61  62  64 
 65  67  68  70  71  72  74  76  78  79  80  81  83  51  58  24  27 
 29  30  31  34  33  33  35  38  43  44  45  46  48  51  52  53  55 
 56  58  60  61  62  64  65  67  66  67  69  69  74  76  78  79  80 
 81  83  51  58  24  27  29  30  32  32  68 137 155 121  57  42  45 
 46  48  51  52  53  55  56  58  60  61  63  64  66  64  88 147 170 
145  91  74  78  79  80  81  83  51  58  24  27  29  30  29  83 215 
248 253 250 185  59  43  46  48  51  52  53  55  56  58  60  61  63 
 64  63  95 212 247 251 250 206  96  76  79  80  81  83  51  58  24 
 27  29  30  38 163 159 169 226 250 251 133  40  46  48  51  52  53 
 55  56  58  60  61  63  64  67 162 164 164 221 250 252 168  76  79 
 80  81  83  51  58  24  27  29  28  56 108   7  74 192 248 252 174 
 42  46  48  51  52  53  55  56  58  60  61  63  63  78 127   9  63 
182 248 252 203  80  78  79  81  83  51  58  24  27  29  29  47 147 
 82 130 215 248 252 161  42  47  48  51  52  53  55  56  58  60  61 
 63  64  74 157  86 121 207 248 252 191  78  78  79  81  83  51  63 
 25  27  29  30  30 133 237 237 248 251 232  91  43  47  48  51  52 
 53  55  56  58  60  61  63  64  63 138 236 236 246 251 240 127  75 
 78  79  80  82  50  75  26  27  29  30  30  40 138 217 227 200 107 
 42  46  47  48  51  52  53  55  56  58  60  61  63  64  64  70 145 
218 231 213 136  75  78  78  79  81  78  43  91  36  25  29  30  31 
 32  35  55  64  49  39  43  45  47  48  51  52  53  55  56  58  60 
 61  63  64  65  65  66  82  93  83  71  75  78  78  79  82  69  37 
 98  62  25  29  30  31  33  35  36  37  40  42  43  44  46  48  51 
 52  53  55  56  58  60  61  63  64  65  66  67  69  69  72  74  75 
 78  78  79  80  53  35  98  91  42  27  30  31  33  35  37  39  41 
 42  43  44  46  48  50  52  53  55  56  58  60  61  63  64  65  66 
 67  69  70  72  73  75  78  78  81  66  40  36  97  97  84  41  29 
 31  33  35  37  38  40  42  43  44  47  49  50  52  53  54  56  58 
 60  61  63  64  65  66  67  69  70  72  73  75  78  80  66  41  38 
 35 101  96  96  85  53  36  33  35  36  38  40  42  43  44  46  48 
 50  51  53  54  56  58  60  62  63  64  65  66  68  69  70  73  74 
 76  75  61  41  38  39  28 113 100  95  94  91  76  59  47  44  45 
 47  49  48  48  50  51  52  53  54  56  57  57  58  59  60  61  62 
 63  64  64  65  65  63  57  46  38  38  37  30   8 113 115 111 108 
107 107 107 104 101 100  99  98  97  97  96  95  95  93  94  93  91 
 91  89  88  87  87  86  85  85  83  81  79  74  66  58  47  38  23 
  6   0 