P2
# CREATOR: Image Processing using C-Ansi - ByDu
40  40
255
  1  36  86  97  96  94  86  73  65  62  62  63  62  61  61  61  62 
 61  60  59  60  60  61  61  60  60  60  60  60  58  58  57  56  49 
 42  39  38  38  28   7  24  88  98  95  87  62  41  36  36  38  39 
 41  42  43  45  47  50  52  53  54  56  57  59  60  62  63  65  67 
 69  70  71  73  73  72  67  51  37  38  38  28  56  99  97  82  42 
 30  33  35  37  38  39  41  43  44  47  47  50  52  53  54  56  57 
 58  59  61  63  65  66  69  70  71  72  73  74  78  77  60  39  38 
 39  72 100  86  39  28  31  33  35  37  38  39  42  43  44  46  47 
 50  51  52  54  56  58  59  60  62  63  64  66  69  70  71  71  73 
 74  77  78  78  62  38  39  83  96  49  27  30  31  33  35  37  38 
 39  42  43  44  45  47  50  51  52  54  56  58  59  60  62  63  64 
 66  69  70  71  71  73  74  77  78  79  80  52  39  92  79  26  28 
 30  31  33  35  37  38  39  42  43  44  45  47  50  51  52  54  56 
 58  59  60  62  63  64  66  67  66  68  69  70  74  77  78  79  82 
 72  42  98  57  25  28  29  31  33  35  37  38  39  42  43  44  45 
 47  50  51  52  54  56  58  59  60  62  63  65  64  76 134 176 164 
107  73  77  78  79  80  81  53 100  42  25  28  29  30  33  35  37 
 38  39  42  43  44  45  47  50  51  52  54  56  58  59  60  62  63 
 64  74 180 243 252 253 232 126  73  78  78  79  82  61 102  37  25 
 28  29  31  33  36  37  38  39  42  43  44  45  47  50  51  52  54 
 56  58  59  59  62  63  62 124 177 149 200 246 253 209  85  78  79 
 79  82  64 105  36  26  28  29  31  33  36  37  38  39  43  43  44 
 45  47  50  51  52  54  56  58  59  59  61  63  64 125  37  30 145 
237 251 232 101  76  79  80  82  65 105  35  25  28  29  31  33  36 
 37  38  39  43  43  44  45  47  50  51  52  54  56  58  59  59  61 
 63  63 133 119 101 184 244 251 225  92  76  78  80  82  65 104  36 
 25  28  29  31  33  36  37  38  39  43  43  44  45  47  50  51  52 
 54  56  58  59  59  61  63  63  93 217 236 244 251 250 165  76  78 
 78  79  82  65 104  36  25  28  29  31  33  36  37  38  39  43  43 
 44  45  47  50  51  52  54  56  58  59  59  61  63  65  63 108 196 
228 220 161  84  77  78  78  80  82  65 104  36  25  28  29  31  33 
 36  37  38  39  42  43  44  45  47  50  51  52  54  56  58  59  60 
 62  64  65  66  65  74  89  85  71  74  77  78  79  80  82  65 104 
 36  25  28  29  31  33  35  37  38  39  42  43  44  45  47  50  51 
 52  54  56  58  60  61  63  64  65  66  67  69  69  71  73  75  76 
 77  78  80  82  65 104  36  25  28  29  31  33  35  37  38  39  42 
 43  44  45  47  50  51  52  54  56  58  60  61  63  64  65  66  67 
 69  71  72  73  75  76  77  78  80  82  65 104  36  25  28  29  31 
 33  35  37  38  39  42  43  44  45  47  50  51  52  54  56  58  60 
 61  63  64  65  66  67  69  71  72  73  75  76  77  78  80  82  65 
104  36  25  28  29  31  33  35  37  38  39  42  43  44  45  47  50 
 51  52  54  56  58  60  61  63  64  65  66  67  69  71  72  73  75 
 76  77  78  80  82  65 104  36  25  28  29  31  33  36  37  38  39 
 42  43  44  45  47  50  51  52  54  56  58  60  61  63  64  65  66 
 67  69  71  72  73  75  76  77  78  80  82  65 104  36  25  28  29 
 31  33  36  37  38  39  43  43  44  45  47  50  51  52  54  56  58 
 60  61  63  64  65  66  68  70  71  72  73  75  76  77  78  80  82 
 65 104  36  25  28  29  31  33  36  37  38  39  43  43  44  45  47 
 50  51  52  54  56  58  60  61  63  64  65  66  68  70  71  72  73 
 75  76  77  78  80  82  65 104  36  25  28  29  31  33  36  37  38 
 39  43  43  44  45  47  50  51  52  54  56  58  60  61  63  64  65 
 66  68  70  71  72  73  75  76  77  78  80  82  65 104  36  25  28 
 29  31  33  36  37  38  39  43  43  44  45  47  50  51  52  54  56 
 58  60  61  63  64  65  66  68  70  71  72  73  75  76  77  78  80 
 82  65 104  36  25  28  29  31  33  36  37  38  39  43  43  44  45 
 47  50  51  52  54  56  58  60  61  63  64  65  66  68  70  71  72 
 73  75  76  77  78  80  82  65 104  36  25  28  29  31  33  36  37 
 38  39  43  43  44  45  47  50  51  52  54  56  58  60  61  63  64 
 65  66  68  70  71  72  73  75  76  77  78  80  82  65 104  36  25 
 28  29  31  33  35  34  34  35  39  43  44  45  47  50  51  52  54 
 56  58  60  61  63  64  65  66  68  70  71  72  73  75  76  77  78 
 80  82  65 104  36  25  28  29  31  33  39  96 142 133  75  41  44 
 45  47  50  51  52  54  56  58  60  61  63  64  65  66  68  70  71 
 72  73  75  76  77  78  80  82  65 104  36  25  28  29  30  37 147 
239 252 252 223 101  42  45  47  50  51  52  54  56  58  60  61  63 
 64  65  66  68  70  71  72  73  75  76  77  78  80  82  65 104  36 
 25  28  29  28  88 186 160 203 246 253 204  57  44  47  50  51  52 
 54  56  58  60  61  63  64  65  66  68  70  71  72  73  75  76  77 
 78  80  82  65 104  36  25  28  29  29 117  51  28 140 234 250 237 
 82  43  47  50  51  52  54  56  58  60  61  63  64  65  66  68  70 
 71  72  73  75  76  77  78  80  82  65 104  36  25  28  29  29 111 
107  83 172 241 251 231  74  43  47  49  51  52  54  56  58  60  61 
 63  64  65  66  68  70  71  72  73  75  76  77  78  80  82  65 105 
 37  25  28  29  30  62 209 231 240 250 252 170  47  45  47  49  51 
 52  54  56  58  60  61  63  64  65  66  68  70  71  72  73  75  76 
 77  78  80  82  64 109  46  24  28  29  31  31  88 197 232 227 168 
 63  42  44  47  49  51  52  54  56  58  60  61  63  64  65  66  68 
 70  71  72  73  75  76  77  78  80  81  57 110  66  25  28  29  30 
 33  32  46  70  65  43  41  44  45  47  49  51  52  54  56  58  60 
 61  63  64  65  66  68  70  71  72  73  75  76  77  78  80  77  45 
108  89  36  26  29  30  33  35  36  36  39  42  43  44  45  47  50 
 51  52  54  56  58  60  61  63  64  65  66  68  69  71  71  73  75 
 76  77  78  81  61  39 108  99  68  27  29  30  33  35  37  38  40 
 42  44  44  45  47  50  51  52  54  56  58  60  61  63  64  65  66 
 68  69  71  71  73  75  76  78  79  72  43  39 108  97  95  60  29 
 30  33  35  37  38  39  42  44  44  45  47  50  51  52  54  56  58 
 60  61  63  64  65  66  68  69  71  71  73  75  76  78  75  49  36 
 38 111  97  97  94  68  38  31  35  37  38  39  42  44  45  45  47 
 50  51  52  54  56  58  60  61  63  64  66  67  68  70  71  72  74 
 76  76  67  46  37  38  37 113 105  96  94  94  82  63  50  45  44 
 45  45  46  48  49  49  52  53  53  54  56  57  58  59  60  61  62 
 63  64  65  66  67  66  61  49  39  37  38  37  18 106 114 111 105 
105 104 104 101  97  96  96  96  94  93  92  92  92  91  89  89  89 
 88  86  84  83  84  84  82  81  80  80  78  69  63  57  50  40  27 
 12   1 