P2
# CREATOR: Image Processing using C-Ansi - ByDu
40  40
255
 18  78  98  95  97  88  71  60  54  54  54  55  54  55  55  55  57 
 57  58  58  59  59  60  60  60  62  62  63  63  64  65  64  62  53 
 43  39  39  38  30   9  69  98  95  92  72  43  35  36  37  38  40 
 42  43  44  45  47  49  51  52  54  56  57  59  60  62  64  65  66 
 67  69  70  73  76  75  69  53  39  38  40  29  95  96  92  56  32 
 31  34  36  37  38  40  43  43  44  46  48  50  51  52  54  56  58 
 59  60  62  64  65  66  68  69  70  72  74  76  77  77  61  39  39 
 40  98  97  59  28  31  33  34  36  38  38  40  43  43  44  46  48 
 50  51  52  54  56  58  59  60  62  64  65  66  68  70  70  72  74 
 76  77  78  79  61  39  39  98  77  28  28  30  32  34  36  37  38 
 40  43  43  44  46  48  50  52  53  55  56  58  59  60  62  64  65 
 66  67  69  71  73  74  76  77  78  79  79  52  38  96  48  26  28 
 30  33  34  36  37  38  40  43  43  44  46  48  50  52  53  55  56 
 58  59  60  62  64  65  66  67  69  70  73  74  76  77  78  79  81 
 71  40  84  32  27  29  30  32  34  36  37  38  40  43  43  44  46 
 48  50  52  53  55  56  58  59  60  62  64  65  66  67  69  70  73 
 74  76  77  78  79  80  79  47  75  26  27  28  30  32  34  36  37 
 38  40  43  43  44  46  48  50  52  53  55  56  58  59  60  62  64 
 65  66  67  69  70  73  74  76  77  78  79  80  82  55  68  25  27 
 28  30  32  34  36  37  38  40  43  43  45  46  48  50  52  53  55 
 56  58  59  60  62  64  65  66  68  69  70  73  74  75  77  78  79 
 81  82  58  68  24  27  29  30  32  34  36  37  38  40  43  44  45 
 46  48  50  52  53  54  56  58  59  60  62  64  65  67  69  70  70 
 73  74  75  77  78  79  82  83  58  68  24  27  29  30  32  34  36 
 37  38  40  43  44  45  46  48  50  52  53  54  56  58  59  60  62 
 64  65  67  69  70  70  73  74  75  77  78  79  82  83  58  68  24 
 27  29  30  32  34  36  37  38  40  43  44  45  46  48  50  52  53 
 54  56  58  59  60  62  64  65  67  69  70  70  73  74  75  77  78 
 79  82  83  58  68  24  27  29  30  32  34  36  37  38  40  43  44 
 45  46  48  50  52  53  55  56  58  59  60  62  64  65  67  69  70 
 70  73  74  75  77  78  79  82  83  58  68  24  27  29  30  32  34 
 36  37  38  40  43  44  44  46  48  50  52  53  55  56  58  59  60 
 62  64  65  67  69  70  70  73  74  75  77  78  79  82  83  58  69 
 24  27  29  30  32  34  36  37  38  40  43  44  44  46  48  50  52 
 53  55  56  58  59  60  62  64  65  66  68  70  70  73  74  75  77 
 78  79  82  83  58  69  24  27  29  30  32  34  36  37  38  40  43 
 44  44  46  48  50  52  53  55  56  58  59  60  62  64  65  66  68 
 70  70  73  74  75  77  78  79  82  83  58  69  24  26  29  30  32 
 34  36  37  38  40  43  44  44  46  48  50  52  53  55  56  58  59 
 60  62  64  65  66  68  70  70  73  74  75  77  78  79  82  83  58 
 69  24  26  28  30  32  34  36  37  38  40  43  44  44  46  48  50 
 52  53  55  56  58  59  60  62  64  65  66  68  70  70  73  74  75 
 77  78  79  82  83  58  69  24  26  28  30  32  34  36  37  38  40 
 43  44  45  46  48  50  52  53  55  56  58  59  60  62  64  65  66 
 68  70  70  73  74  75  77  78  79  82  83  58  68  24  27  29  30 
 32  34  36  37  38  40  43  44  45  46  48  50  52  53  54  56  58 
 59  60  62  64  65  66  68  70  70  73  74  75  77  78  79  82  83 
 58  67  24  27  29  30  32  34  36  37  38  40  43  44  45  46  48 
 50  52  53  54  56  58  59  60  62  64  65  66  68  70  70  73  74 
 75  77  78  79  82  83  58  67  24  27  29  30  32  34  36  37  38 
 40  43  44  45  46  48  50  52  53  54  56  58  59  60  62  64  65 
 66  68  70  70  73  74  75  77  78  79  82  83  58  67  24  27  29 
 30  32  34  36  37  38  40  43  44  45  46  48  50  52  53  54  56 
 58  59  60  62  64  65  66  68  70  70  73  74  75  77  78  79  82 
 83  58  67  24  27  29  30  32  34  36  37  38  40  43  44  45  46 
 48  50  51  53  54  56  58  59  60  62  64  65  67  68  70  70  73 
 74  75  77  78  79  82  83  58  67  24  27  29  30  32  34  36  37 
 38  40  43  44  45  46  48  50  52  53  54  56  58  59  60  62  64 
 65  67  68  70  70  73  74  75  77  78  79  82  83  58  67  24  27 
 29  30  32  34  36  37  38  40  43  44  45  46  48  50  52  53  54 
 56  58  59  60  62  64  66  67  68  70  70  73  74  75  77  78  79 
 82  83  58  67  24  27  29  30  32  34  36  37  38  40  43  44  45 
 46  48  50  52  53  54  56  58  59  60  62  64  66  67  68  70  70 
 73  74  75  77  78  79  82  83  58  67  24  27  29  30  32  34  36 
 37  38  40  43  44  45  46  48  50  52  53  55  56  58  59  60  62 
 64  66  67  68  70  70  73  74  75  77  78  79  82  83  58  67  24 
 27  29  30  32  34  36  37  38  40  43  44  45  46  48  50  52  53 
 55  56  58  59  60  62  64  66  67  68  70  70  73  74  75  77  78 
 79  82  83  58  67  24  27  29  30  32  34  36  37  38  40  43  44 
 45  46  48  50  52  53  55  56  58  59  60  62  64  65  67  68  70 
 70  73  74  75  77  78  79  81  83  58  68  24  27  29  30  32  34 
 36  37  38  40  43  44  45  46  48  50  52  53  55  56  58  59  60 
 62  64  65  67  68  70  70  73  74  75  77  78  79  81  83  58  70 
 25  27  29  30  32  34  36  37  38  40  43  44  45  46  48  50  52 
 53  55  56  58  59  60  62  64  65  67  68  70  70  73  74  75  77 
 78  79  81  83  57  82  28  26  29  30  32  34  36  37  38  40  43 
 44  45  46  48  50  52  53  55  56  58  59  60  62  64  65  67  68 
 70  70  73  74  75  77  78  79  81  80  49  94  39  26  29  30  32 
 34  36  37  38  40  43  44  45  46  48  50  52  53  55  56  58  59 
 60  62  64  65  67  68  70  70  73  74  75  77  78  79  82  75  42 
100  65  26  29  30  32  34  36  37  38  40  43  44  45  46  48  50 
 52  53  55  56  58  59  60  62  64  65  67  68  70  70  73  74  75 
 77  78  79  81  59  37 100  91  42  27  30  32  34  36  37  38  40 
 43  44  45  46  48  50  52  53  54  56  58  59  60  62  64  65  67 
 68  70  70  73  74  75  77  78  80  72  40  37  99  97  83  39  28 
 32  34  36  37  38  40  43  44  45  46  48  50  52  53  54  56  58 
 59  60  62  64  65  67  68  70  70  73  74  75  77  79  73  47  37 
 38 102  97  97  83  47  33  33  35  37  38  40  43  44  45  46  48 
 50  52  53  54  56  58  59  60  63  64  65  67  68  70  70  73  74 
 76  78  68  46  36  38  34 112  99  95  94  89  69  51  42  39  40 
 43  45  45  47  47  47  50  52  53  54  56  57  58  60  61  63  63 
 64  66  68  67  69  69  63  52  40  37  37  36  17 113 112 105 103 
101 100  96  90  86  86  85  84  84  83  81  80  81  80  79  77  76 
 76  76  74  73  73  72  71  70  69  69  66  62  56  49  45  37  27 
 11   1 