P2
# CREATOR: Image Processing using C-Ansi - ByDu
40  40
255
  6  55  94  97  97  93  83  70  62  60  62  62  61  61  62  62  62 
 62  62  61  61  60  60  61  62  61  61  60  60  60  60  60  57  49 
 41  38  41  38  27   8  47  96  95  94  81  54  39  37  39  39  40 
 41  43  44  45  46  49  52  53  55  56  57  58  60  62  64  66  67 
 67  68  71  73  73  72  66  51  40  38  39  28  84  97  95  71  35 
 30  35  36  38  38  40  42  43  44  45  47  50  52  53  55  56  58 
 59  61  62  63  65  66  67  68  70  72  72  74  77  76  59  40  39 
 39  93  98  72  30  28  31  34  35  37  38  40  42  43  45  45  47 
 50  52  53  55  56  58  59  61  62  63  65  66  68  69  70  72  72 
 75  77  78  79  61  39  39  95  88  35  26  29  31  34  36  37  38 
 41  42  43  44  44  46  51  52  52  55  56  58  59  60  62  63  64 
 66  68  69  70  72  73  75  77  78  79  79  53  39  98  59  24  27 
 30  32  34  34  33  34  36  41  44  44  44  46  51  52  52  55  56 
 58  59  59  61  63  64  66  68  65  68  68  70  75  77  78  78  81 
 71  43  94  38  26  28  30  32  32  51 119 155 132  66  41  45  44 
 46  51  52  52  55  56  58  59  59  61  63  64  63  76 133 170 154 
 99  73  77  78  78  80  79  49  86  28  26  28  30  31  55 187 246 
254 253 208  77  42  44  46  51  52  52  55  56  58  59  59  61  63 
 64  76 185 244 252 251 224 115  74  78  78  79  82  61  81  26  26 
 27  30  31 130 176 165 217 250 254 173  44  44  46  51  52  52  55 
 56  58  59  59  61  63  62 134 181 160 209 247 251 199  80  78  78 
 79  83  64  79  26  26  27  29  40 129  21  50 167 244 251 214  56 
 43  46  51  52  52  54  56  58  59  59  61  63  65 130  31  40 156 
239 249 228  95  76  78  80  82  64  80  27  26  27  29  35 140  86 
104 194 245 251 203  52  44  46  51  52  52  54  56  58  59  59  61 
 64  64 142  97  95 185 244 250 222  90  77  78  80  82  64  80  27 
 26  27  29  27  98 227 231 245 251 248 132  41  44  46  51  52  52 
 54  56  58  59  59  61  64  62 109 225 231 241 250 250 165  76  78 
 78  80  82  64  80  27  26  27  29  31  34 120 215 236 222 143  50 
 44  44  46  51  52  52  54  56  58  59  59  61  64  65  66 126 216 
237 228 169  85  76  78  78  80  82  64  80  27  26  27  30  32  32 
 31  54  77  63  41  43  44  44  46  51  52  52  54  56  58  59  59 
 61  64  65  66  65  82 102  93  74  75  77  78  79  81  84  65  80 
 27  26  27  30  33  33  34  35  35  38  42  43  44  44  46  51  52 
 52  54  56  58  59  59  61  64  65  66  67  67  68  70  73  75  76 
 78  79  80  83  65  80  27  26  27  30  33  33  34  33  33  36  41 
 44  44  44  46  51  52  52  54  56  58  59  59  61  64  65  66  68 
 66  66  68  71  75  77  78  78  80  83  64  80  27  26  27  30  33 
 32  42  96 130 106  54  42  45  44  46  51  52  52  54  56  58  59 
 59  61  64  65  64  70 114 147 133  88  73  76  78  79  81  84  65 
 80  27  26  27  30  31  47 171 242 250 246 192  67  42  45  47  50 
 51  52  54  56  58  59  59  61  64  64  72 169 242 250 248 211 104 
 74  78  78  80  83  64  80  27  26  27  30  29 123 194 181 223 250 
253 162  45  46  48  50  51  52  54  56  58  59  59  61  64  62 127 
197 179 218 247 252 191  80  78  78  79  82  64  80  27  26  27  29 
 38 133  33  59 170 245 253 213  57  46  47  50  51  52  54  56  58 
 59  59  61  64  64 131  43  48 158 240 250 227  95  76  78  80  82 
 64  80  26  26  27  29  36 137  64  87 187 246 252 208  56  45  47 
 49  51  52  54  56  58  59  59  61  64  64 138  74  77 177 244 250 
225  93  77  78  80  82  64  80  26  26  27  30  28 112 224 218 240 
251 250 145  44  47  47  49  51  52  54  56  58  59  59  61  64  63 
117 221 218 237 249 251 176  77  78  78  80  82  64  80  26  26  27 
 30  32  39 140 230 247 235 162  54  44  47  47  49  51  52  54  56 
 58  59  59  61  64  65  67 144 228 246 239 186  90  75  78  78  79 
 82  64  80  26  26  27  30  33  33  34  68  96  78  45  41  46  47 
 47  49  51  52  54  56  58  59  59  61  64  65  65  66  92 119 108 
 77  73  77  78  79  80  83  64  80  26  26  27  30  33  33  34  34 
 35  38  41  43  45  47  47  49  51  52  54  56  58  59  59  61  64 
 65  66  68  67  67  70  74  75  76  78  79  81  84  65  80  26  26 
 27  30  32  33  34  34  35  37  41  43  44  45  47  50  51  52  54 
 56  58  59  59  61  64  65  66  68  68  67  70  73  74  76  78  78 
 80  83  64  80  26  26  27  30  32  33  37  77 105  87  47  43  45 
 45  47  49  51  52  54  56  58  59  59  61  64  65  65  68 100 126 
116  81  73  76  78  79  81  84  65  80  26  26  27  30  31  40 152 
237 248 240 174  60  42  45  47  50  51  52  54  56  58  59  59  61 
 64  65  68 154 234 248 243 196  95  75  77  79  80  83  64  80  26 
 26  27  29  28 113 207 195 228 249 252 152  44  46  47  50  51  53 
 54  56  58  59  59  61  64  62 121 207 192 225 250 252 184  79  77 
 78  79  82  64  80  26  26  27  30  37 134  47  68 175 245 252 211 
 55  44  47  49  51  52  54  56  58  59  59  61  64  65 136  56  58 
163 242 251 226  93  76  78  80  82  64  80  27  27  28  30  37 134 
 44  73 182 246 253 212  56  45  47  50  51  52  54  56  58  59  59 
 61  64  65 136  54  62 169 241 250 227  94  76  78  80  83  64  81 
 27  27  28  30  28 118 214 208 235 249 253 157  45  47  47  49  51 
 52  54  56  58  59  59  61  64  62 125 215 205 230 248 252 187  79 
 78  79  80  83  64  88  30  26  28  30  31  43 160 241 248 242 183 
 63  43  46  47  49  51  52  54  56  58  59  59  61  64  65  69 161 
240 247 245 202  99  75  78  79  80  81  57  98  41  26  28  30  31 
 32  40  84 113  94  51  42  44  45  47  50  51  52  54  56  58  59 
 59  61  64  65  64  67 105 135 123  84  73  76  77  78  81  79  47 
104  65  26  28  30  31  33  35  33  33  37  42  44  45  45  47  49 
 51  52  54  56  58  59  59  61  64  65  66  67  67  67  68  72  75 
 77  78  78  82  68  41 102  92  41  27  30  31  33  35  36  38  41 
 42  44  45  45  47  50  51  52  54  56  58  59  59  61  64  65  66 
 67  69  71  72  72  75  77  78  79  78  47  39 102  98  80  36  29 
 31  33  35  37  38  40  42  43  44  45  47  50  51  52  54  56  58 
 59  59  61  64  65  66  67  69  71  72  72  75  77  78  78  55  37 
 39 102  96  96  80  42  30  32  35  37  38  40  42  43  44  44  47 
 50  51  52  54  56  58  59  59  61  64  65  66  67  69  71  72  73 
 75  78  74  55  38  39  39 111  99  95  94  88  65  45  40  38  39 
 41  42  43  44  45  48  50  51  52  54  56  57  59  59  61  63  64 
 65  66  68  70  71  72  69  60  45  37  38  38  24 113 110 100  97 
 96  95  89  80  75  71  72  71  71  70  68  68  68  68  67  66  65 
 64  64  64  63  62  61  60  59  59  59  58  54  47  42  40  39  35 
 20   4 