P2
# CREATOR: Image Processing using C-Ansi - ByDu
40  40
255
  1  34  80  91  91  91  83  73  65  64  64  64  63  62  61  61  60 
 59  59  58  58  57  57  56  56  55  55  54  54  54  54  52  49  42 
 38  37  37  34  20   4  27  89  97  94  91  66  45  39  39  39  40 
 43  43  44  46  47  49  51  52  54  56  57  59  60  62  64  65  66 
 67  69  71  73  75  71  61  45  38  39  39  22  64  98  95  82  46 
 31  33  35  37  38  40  43  43  44  46  47  50  51  52  54  56  58 
 59  60  62  64  65  66  67  69  70  72  74  76  77  73  52  37  39 
 38  78  99  86  39  29  32  34  35  37  38  40  43  43  44  46  47 
 50  51  52  53  56  58  59  60  61  64  65  66  68  70  70  72  74 
 75  77  78  77  53  38  39  85  96  48  26  30  32  33  35  37  38 
 39  43  43  44  46  47  49  51  53  54  56  58  59  60  61  64  65 
 65  67  69  70  72  74  75  77  78  80  76  46  38  93  75  27  28 
 30  32  34  35  37  38  39  43  43  44  46  47  49  51  53  54  56 
 58  59  60  61  64  65  65  67  69  70  73  74  75  77  78  79  81 
 66  38  95  51  26  28  29  32  34  35  37  38  39  43  43  44  46 
 47  49  51  53  54  56  58  59  60  61  64  65  65  67  69  70  72 
 74  75  77  78  79  81  78  45  95  38  26  28  29  31  34  35  37 
 38  39  43  43  44  46  47  49  51  53  54  56  58  59  60  61  64 
 65  65  67  69  70  72  74  75  77  78  79  80  81  53  94  32  26 
 28  30  31  33  35  37  38  39  43  43  44  46  47  49  51  53  54 
 56  58  59  60  61  64  65  66  67  69  70  72  74  75  77  78  79 
 81  82  58  95  31  26  28  30  31  34  35  37  38  39  43  44  44 
 46  48  50  51  53  54  56  57  59  60  61  64  65  66  68  70  70 
 72  74  75  77  78  79  81  82  58  96  31  25  28  29  31  34  35 
 37  38  39  43  44  45  46  48  50  51  53  54  56  57  59  60  61 
 64  65  66  69  70  70  72  74  75  77  78  79  82  83  59  95  31 
 25  28  29  31  34  35  37  38  39  43  44  45  46  48  50  51  53 
 54  56  57  59  60  61  64  65  66  69  70  70  72  74  75  77  78 
 79  82  83  59  95  31  25  28  29  31  34  35  37  38  39  43  44 
 45  46  48  50  51  53  54  56  57  59  60  61  64  65  66  69  70 
 70  72  74  75  77  78  79  82  83  59  95  31  25  28  29  31  34 
 35  37  38  39  43  44  45  46  48  50  51  53  54  56  57  59  60 
 61  64  65  66  69  70  70  72  74  75  77  78  79  82  83  59  96 
 31  26  28  30  31  34  35  37  38  39  43  44  45  46  48  50  51 
 53  54  56  57  59  60  61  64  65  66  68  70  70  72  74  75  77 
 78  79  82  83  59  96  31  26  28  30  31  34  35  37  38  39  43 
 44  45  46  48  50  51  51  51  53  57  60  60  62  64  65  66  68 
 70  70  72  74  75  77  78  79  82  83  59  96  31  25  28  29  31 
 34  35  37  38  39  43  44  45  46  48  50  49  72 109 110  76  56 
 60  62  64  65  66  68  70  70  72  74  75  77  78  79  82  83  59 
 96  31  25  28  29  31  34  35  37  38  39  43  44  45  46  48  48 
104 214 246 245 212 105  59  62  64  65  66  68  70  70  72  74  75 
 77  78  79  82  83  59  96  31  25  28  29  31  34  35  37  38  39 
 43  44  45  46  46  69 193 197 212 246 253 211  77  61  64  65  66 
 68  70  70  72  74  75  77  78  79  82  83  59  95  30  25  28  29 
 31  34  35  37  38  39  43  44  45  46  44 103  99  39 131 226 251 
245 115  59  64  65  66  68  70  70  72  74  75  77  78  79  82  83 
 59  95  30  26  28  30  31  34  35  37  38  39  43  44  45  46  45 
105  92  36 134 228 250 245 115  59  64  65  66  68  70  70  72  74 
 75  77  78  79  82  83  59  95  30  25  28  30  31  34  35  37  38 
 39  43  44  45  46  46  72 200 202 221 248 252 218  79  62  65  65 
 66  68  70  70  72  74  75  77  78  79  82  83  59  95  30  25  28 
 30  31  34  35  37  38  39  43  44  45  46  48  48 115 224 250 249 
222 117  59  63  65  65  66  68  70  70  72  74  75  77  78  79  82 
 83  59  95  30  25  28  30  31  34  35  37  38  39  43  44  45  46 
 48  51  50  80 123 124  82  57  60  62  64  65  66  68  70  70  72 
 74  75  77  78  79  82  83  59  95  30  25  28  30  31  34  35  37 
 38  39  43  44  45  46  48  50  53  51  50  52  56  58  60  62  64 
 65  66  68  70  70  72  74  75  77  78  79  82  83  59  95  30  25 
 28  30  31  34  35  37  38  39  43  44  45  46  48  50  52  53  54 
 56  58  59  60  62  64  65  66  68  70  70  72  74  75  77  78  79 
 82  83  59  95  30  25  28  30  31  34  35  37  38  39  43  44  45 
 46  48  50  52  53  54  56  58  59  60  62  64  65  66  68  70  70 
 72  74  75  77  78  79  82  83  59  95  30  25  28  30  31  34  35 
 37  38  39  43  44  45  46  48  50  52  53  54  56  58  59  60  62 
 64  65  66  68  70  70  72  74  75  77  78  79  82  83  59  95  30 
 25  28  30  31  34  35  37  38  39  43  44  45  46  48  50  52  53 
 54  56  58  59  60  62  64  65  66  68  70  70  72  74  75  77  78 
 79  82  83  59  95  30  25  28  30  31  34  35  37  38  39  43  44 
 45  46  48  50  52  53  54  56  58  59  60  62  64  65  66  68  70 
 70  72  74  75  77  78  79  81  83  59  95  30  26  28  30  31  34 
 35  37  38  39  43  44  45  46  48  50  52  53  54  56  58  59  60 
 62  64  65  66  68  70  70  72  74  75  77  78  79  81  83  59  95 
 32  26  28  30  31  34  35  37  38  39  43  44  45  46  48  50  52 
 53  54  56  58  59  60  62  64  65  66  68  70  70  72  74  75  77 
 78  79  81  83  58 101  37  25  28  30  31  34  35  37  38  39  43 
 44  45  46  48  50  52  53  54  56  58  59  60  62  64  65  66  68 
 70  70  72  74  75  77  78  79  81  81  53 107  50  24  28  30  31 
 34  35  37  38  39  43  44  45  46  48  50  52  53  54  56  58  59 
 60  62  64  65  66  68  70  70  72  74  75  77  78  79  81  78  44 
107  75  28  28  30  31  34  35  37  38  39  43  44  45  46  48  50 
 52  53  54  56  58  59  60  62  64  65  66  68  70  70  72  74  75 
 77  78  79  82  65  38 106  94  46  27  29  31  34  35  37  38  39 
 43  44  45  46  48  50  52  53  54  56  57  59  60  62  64  65  66 
 68  70  70  72  74  75  77  78  80  77  45  37 106  98  83  38  28 
 31  34  35  37  38  39  43  44  45  46  48  50  52  53  54  56  57 
 59  60  62  64  65  66  68  70  70  72  74  75  77  78  78  56  37 
 37 108  97  98  81  42  31  33  35  37  38  39  43  44  45  46  48 
 50  52  53  54  56  57  59  60  62  64  65  66  68  70  70  72  74 
 76  78  76  55  37  37  37 113 100  95  95  86  60  42  37  36  37 
 39  43  43  44  45  47  49  52  53  54  56  58  59  61  63  64  65 
 66  68  70  70  73  74  72  64  48  38  37  38  24 113 111 100  94 
 93  91  82  69  61  61  61  61  61  60  59  58  59  59  59  58  57 
 58  58  57  57  57  57  56  55  56  54  54  51  44  37  38  38  35 
 23   4 