P2
# CREATOR: Image Processing using C-Ansi - ByDu
40  40
255
 20  76  97  96  95  88  74  61  57  56  57  56  56  56  57  57  59 
 59  59  59  59  60  61  61  62  63  62  61  62  62  63  63  59  49 
 41  40  40  39  27   5  73  97  95  93  70  44  35  35  36  38  41 
 41  42  43  45  47  50  51  52  54  56  58  59  60  61  64  65  66 
 67  70  71  73  74  73  65  49  38  38  39  23  99  97  92  55  31 
 33  35  36  37  39  41  42  43  44  45  48  50  52  53  54  56  58 
 59  61  62  64  65  65  67  69  71  72  73  75  77  77  59  39  39 
 35 100  96  56  26  31  33  34  36  37  38  42  43  44  44  46  48 
 50  52  53  54  56  58  60  61  62  64  65  65  67  69  71  72  73 
 75  77  79  80  57  38  35 100  75  28  28  31  33  33  36  38  38 
 42  43  44  44  46  48  50  52  53  54  56  58  60  61  62  64  65 
 65  67  69  71  72  73  75  77  79  80  77  47  34  97  45  25  28 
 31  33  33  36  38  38  42  43  44  44  46  48  50  52  53  54  56 
 58  60  61  62  64  65  65  65  67  70  69  72  75  77  78  78  80 
 64  34  82  29  26  28  31  33  33  36  38  38  42  43  44  44  46 
 48  50  52  53  54  56  58  60  61  62  64  65  64  97 164 187 163 
 99  74  77  78  78  80  77  41  69  25  27  28  30  33  33  36  38 
 38  42  43  44  44  46  48  50  52  53  54  56  58  60  61  62  64 
 64 102 218 245 251 251 218 107  76  78  79  80  81  49  62  23  26 
 28  30  32  34  36  38  38  42  43  44  44  46  48  50  52  53  54 
 56  58  60  61  62  64  66 160 150 151 215 248 252 179  75  78  78 
 79  81  54  61  23  26  28  30  32  35  36  38  38  42  43  44  44 
 46  48  50  52  53  54  56  58  60  61  62  64  76 129   7  56 177 
246 251 211  82  78  79  81  82  54  62  24  27  28  30  32  35  36 
 38  38  42  43  44  44  46  48  50  52  53  54  56  58  60  61  62 
 64  69 158 101 128 208 249 252 194  78  78  78  80  82  54  62  24 
 27  29  30  32  35  36  38  38  42  43  44  44  46  48  50  52  53 
 54  56  58  60  61  62  64  63 125 235 240 248 252 239 127  75  78 
 78  80  82  54  62  24  27  29  30  32  35  36  38  38  42  43  44 
 44  46  48  50  52  53  54  56  58  60  61  62  64  66  67 131 209 
225 207 132  77  78  78  79  80  82  53  61  24  27  29  30  32  35 
 36  38  38  42  43  44  44  45  48  50  52  53  54  56  58  60  61 
 62  64  67  68  65  77  87  80  70  75  78  78  79  81  82  54  61 
 24  27  29  30  32  35  36  38  38  42  43  44  44  45  48  50  52 
 53  54  56  58  60  61  62  64  66  66  67  69  70  72  73  75  78 
 79  79  81  82  54  61  24  27  29  30  32  35  36  38  38  42  43 
 44  44  45  48  50  52  49  51  52  56  60  61  62  64  66  66  67 
 69  71  72  73  75  78  79  79  81  82  54  61  24  27  29  30  32 
 35  36  38  38  42  43  44  44  45  48  48  60 120 161 147  88  57 
 61  62  64  66  66  67  70  71  72  72  75  78  79  79  81  82  54 
 61  24  27  29  30  32  35  36  38  38  42  43  44  44  45  47  58 
174 244 253 253 225 109  59  63  64  66  66  67  70  71  72  72  75 
 78  79  79  81  82  54  61  24  27  29  30  32  35  36  38  38  42 
 43  44  44  45  44 116 184 159 206 248 253 204  71  62  64  66  66 
 68  70  71  73  73  75  78  79  79  81  82  54  61  24  27  29  30 
 32  35  36  38  38  42  43  44  44  45  48 123  35  35 151 238 251 
233  89  61  64  66  67  68  70  71  73  73  75  78  79  79  81  82 
 54  61  24  27  29  30  32  35  36  38  38  42  43  44  44  45  45 
129 101  91 182 244 252 227  83  61  64  65  66  68  70  71  73  73 
 75  78  79  79  81  82  54  61  24  27  29  30  32  35  36  38  38 
 42  43  44  44  45  44  89 220 231 241 250 251 166  62  63  64  65 
 66  68  70  71  73  73  75  78  79  79  81  82  54  61  24  27  29 
 30  32  35  36  38  38  42  43  44  44  46  48  48 111 209 236 229 
167  73  60  63  64  65  66  68  70  71  73  73  75  78  79  79  81 
 82  54  61  24  27  29  30  32  35  36  38  38  42  43  44  44  46 
 48  50  49  64  88  81  58  58  62  62  64  65  66  68  70  71  73 
 73  75  78  79  79  81  82  54  61  24  27  29  30  32  35  36  38 
 38  42  43  44  44  45  47  50  52  52  52  55  58  59  61  62  64 
 66  66  68  69  71  73  73  75  78  79  79  81  82  54  61  24  27 
 29  30  32  35  35  34  35  38  42  44  44  45  47  50  52  53  54 
 56  58  59  61  62  64  66  66  68  69  71  73  73  75  78  79  79 
 81  82  54  61  24  27  29  30  32  32  52 108 131  98  49  42  45 
 45  47  50  52  53  54  56  58  59  61  62  64  66  66  68  69  71 
 73  73  75  78  79  79  81  82  54  61  24  27  29  30  30  64 196 
247 252 244 168  52  44  46  47  50  52  53  54  56  58  59  61  62 
 64  66  66  68  69  71  73  73  75  78  79  79  81  82  54  61  24 
 27  28  30  34 154 187 186 232 251 250 128  41  45  47  50  52  53 
 54  56  58  59  61  62  64  66  66  68  69  71  73  73  75  78  79 
 79  81  82  54  61  24  27  28  29  52 116  21  80 192 249 253 178 
 44  46  47  50  52  53  54  56  58  59  61  62  64  66  66  68  69 
 71  73  73  75  78  79  79  80  82  53  61  24  27  28  30  50 134 
 53 109 206 250 253 173  44  46  47  50  52  53  54  56  58  59  61 
 62  64  66  66  68  69  71  73  73  75  78  79  79  80  82  53  65 
 24  27  28  31  31 145 225 223 244 251 243 111  42  46  47  50  52 
 53  54  56  58  59  61  62  64  66  66  68  69  71  73  73  75  78 
 79  79  81  82  51  73  26  27  28  31  31  50 166 236 246 228 139 
 47  45  46  47  50  52  53  54  56  58  59  61  62  64  66  66  68 
 69  71  73  73  75  78  79  79  81  80  47  88  35  26  28  31  34 
 34  39  76  95  69  41  42  44  46  48  50  52  53  54  56  58  59 
 61  62  64  66  66  68  69  71  73  73  75  78  79  79  81  73  39 
 99  57  25  28  31  33  35  36  36  36  39  42  43  44  46  48  50 
 52  53  54  56  58  59  61  62  64  66  66  68  69  71  73  73  75 
 78  79  79  81  58  36  97  87  35  27  30  33  35  36  38  39  41 
 42  43  44  46  48  50  52  53  54  56  58  59  61  62  64  66  66 
 68  69  71  73  73  75  78  78  80  70  40  36  96  99  75  33  29 
 32  34  36  37  39  41  42  43  44  46  48  50  52  53  54  56  58 
 59  61  62  64  66  66  68  69  71  73  73  75  78  79  73  45  37 
 35 100  98  97  77  42  30  32  35  37  39  41  42  43  44  46  48 
 50  52  53  54  56  58  59  61  62  64  66  66  68  70  71  73  74 
 76  77  68  46  37  37  30 109  98  95  95  89  65  48  42  39  40 
 42  43  44  45  47  48  50  52  53  54  55  57  58  60  61  63  64 
 65  67  68  68  70  69  64  52  41  38  39  35  14 113 111 103 101 
100  98  94  87  83  83  82  80  78  78  77  77  77  76  75  75  75 
 74  72  71  70  70  70  69  68  68  66  64  58  51  46  44  40  30 
 14   1 