P2
# CREATOR: Image Processing using C-Ansi - ByDu
40  40
255
  7  49  87  92  91  89  82  73  65  62  63  63  62  60  60  60  60 
 60  61  60  58  57  57  57  56  56  56  55  54  53  53  53  47  41 
 37  36  37  36  20   3  50  94  95  96  83  58  43  39  37  38  40 
 43  43  44  46  47  49  51  52  54  55  57  59  60  62  64  65  66 
 67  69  71  72  73  69  61  45  37  37  37  19  92  98  96  72  38 
 31  34  36  37  38  40  43  43  44  45  48  50  51  52  54  56  58 
 60  61  61  64  65  66  68  70  71  73  74  75  77  72  52  37  37 
 34  99  98  73  32  29  32  34  36  37  38  40  43  43  44  45  48 
 50  51  52  55  56  58  59  61  61  64  65  66  68  70  71  72  73 
 75  77  78  77  53  37  38  99  86  34  26  29  31  34  36  37  38 
 41  43  43  44  45  47  50  51  53  55  57  58  59  60  62  64  65 
 66  68  70  71  72  73  75  77  78  80  77  45  39  99  57  25  28 
 29  31  34  34  33  34  37  42  43  44  45  48  50  52  53  55  57 
 58  58  60  62  64  65  66  67  66  67  68  72  75  77  78  79  82 
 64  37  90  35  27  28  29  31  32  47 101 128  98  50  42  44  45 
 48  50  52  53  55  57  58  58  59  61  64  65  64  74 120 148 127 
 83  73  77  78  79  80  78  43  78  26  27  28  30  30  55 186 245 
251 243 176  58  43  45  48  50  52  53  55  57  58  58  59  61  64 
 64  77 182 244 251 246 198  94  75  78  78  80  82  53  69  24  26 
 28  30  31 142 193 184 228 249 249 141  41  45  48  50  51  53  55 
 57  58  58  59  61  64  63 144 194 180 223 248 252 174  75  78  79 
 80  83  57  68  24  27  29  29  44 127  27  72 184 248 252 194  49 
 45  47  49  51  53  55  57  58  58  59  61  64  71 138  31  59 172 
243 251 218  87  77  78  80  83  58  68  25  27  28  29  43 138  56 
 98 197 248 252 189  49  45  47  50  51  53  55  57  58  58  59  61 
 64  69 147  62  87 188 245 252 213  84  78  79  80  82  57  69  25 
 27  28  30  29 131 224 222 242 249 248 126  42  46  47  50  51  53 
 55  57  58  58  59  61  64  63 134 223 219 239 249 250 160  74  78 
 78  80  82  57  69  25  26  28  30  31  44 157 236 247 232 150  49 
 43  45  48  50  51  53  55  57  58  58  59  61  64  65  70 160 235 
247 238 176  86  76  78  79  79  82  57  69  25  26  28  30  31  32 
 37  75  97  75  44  42  44  45  48  50  51  53  55  57  58  58  59 
 61  64  65  66  68  98 120 106  77  75  77  78  79  80  82  57  69 
 25  26  28  30  32  34  35  35  36  39  42  43  44  45  48  50  51 
 53  55  56  58  58  59  61  64  65  66  67  68  68  71  75  75  77 
 78  79  80  82  57  69  25  27  28  30  31  34  36  37  39  41  43 
 43  44  45  47  50  51  50  50  53  56  59  60  61  64  65  66  68 
 69  71  73  74  75  77  78  79  81  83  58  69  25  27  28  30  31 
 34  36  37  38  41  43  43  44  45  48  50  50  78 113 108  70  57 
 60  61  64  65  66  68  69  70  73  73  75  77  79  79  81  83  58 
 69  25  27  28  30  31  34  36  37  38  41  43  43  44  45  47  50 
126 225 247 245 203  93  58  61  64  65  66  68  69  70  73  73  75 
 77  79  79  81  83  58  69  25  27  28  30  31  34  36  37  38  41 
 43  43  44  45  44  90 204 195 220 248 253 195  67  61  64  65  66 
 68  70  71  73  73  75  77  79  79  81  83  58  69  25  27  28  30 
 31  34  36  37  38  41  43  43  43  45  44 123  75  50 150 235 250 
237  96  60  64  65  66  68  70  71  73  73  75  77  79  79  81  83 
 58  68  25  27  28  30  31  34  36  37  38  41  43  43  44  46  45 
124  69  49 154 236 250 239  97  60  64  65  66  68  70  71  73  73 
 75  77  79  79  81  83  57  68  25  27  28  30  31  34  36  37  38 
 41  43  43  44  46  45  94 209 203 227 248 251 201  70  61  64  65 
 65  68  69  71  73  73  75  77  79  79  81  83  57  69  25  27  28 
 30  31  34  36  37  38  41  43  43  44  45  47  50 137 232 250 246 
209 100  58  62  64  65  65  68  69  71  73  73  75  77  79  79  81 
 83  57  68  25  27  28  30  31  34  36  37  39  41  43  43  44  46 
 48  50  51  87 124 116  75  58  61  62  64  65  65  68  69  71  73 
 73  75  77  79  79  81  83  57  68  24  27  28  30  31  34  36  37 
 39  41  43  43  44  45  48  50  51  50  50  52  56  59  60  62  64 
 65  65  68  69  71  73  73  75  77  79  79  81  83  57  68  25  27 
 28  30  31  34  36  36  34  40  43  43  44  45  48  50  51  53  55 
 56  57  58  60  62  64  65  65  68  69  68  72  73  75  77  78  79 
 81  83  58  68  25  27  28  30  31  33  37  68  87  65  41  42  44 
 45  48  50  52  53  55  56  57  58  59  61  64  65  65  66  90 112 
 97  73  75  77  78  79  81  84  58  68  25  27  28  30  31  41 145 
229 244 223 139  48  43  45  48  50  52  53  55  56  57  58  59  61 
 64  65  69 150 226 244 230 165  82  77  78  79  81  84  58  68  25 
 27  28  30  28 124 217 212 238 251 245 119  43  47  48  50  52  53 
 55  56  57  58  59  61  64  62 127 219 210 235 249 248 154  75  78 
 79  81  84  58  68  25  27  28  29  41 138  60  92 192 248 252 187 
 48  47  48  50  52  53  55  56  57  58  59  61  64  68 148  69  83 
181 246 252 211  83  78  79  81  84  58  68  25  27  28  29  44 124 
 23  76 189 247 251 195  50  47  48  50  52  53  55  56  57  58  59 
 61  64  71 139  29  62 176 246 252 217  86  77  79  81  83  58  69 
 26  27  28  30  30 147 194 194 234 249 251 147  43  46  48  50  52 
 53  55  56  57  58  59  61  64  63 147 198 191 229 249 252 179  76 
 78  79  81  83  57  77  28  27  28  30  29  60 196 249 254 247 188 
 63  43  45  48  50  52  53  55  56  57  58  59  61  64  65  81 193 
248 253 249 206 100  75  78  78  80  82  54  91  35  26  28  29  31 
 32  54 115 146 112  55  42  44  45  48  50  52  53  55  56  57  58 
 59  61  64  67  66  79 131 160 138  88  73  76  78  79  79  77  44 
100  53  25  29  29  31  34  35  33  35  37  41  43  44  45  48  50 
 52  53  55  56  57  58  59  61  64  66  67  66  65  67  69  72  75 
 77  78  79  81  66  37 100  84  33  28  29  31  34  36  37  39  41 
 42  43  44  46  48  50  51  53  55  56  57  59  60  61  64  65  66 
 67  69  71  72  74  76  77  78  79  76  46  37  98  98  69  30  29 
 31  34  36  37  38  40  43  44  45  47  48  50  51  53  55  56  57 
 59  60  61  64  65  66  67  69  71  72  73  75  77  78  77  55  37 
 39 100  97  96  69  35  31  33  36  37  38  40  43  44  45  47  48 
 50  51  52  55  56  57  59  60  61  64  65  66  67  69  71  72  73 
 75  78  75  56  38  37  36 106  97  96  95  81  55  39  37  37  37 
 40  42  43  44  46  49  50  51  52  55  56  57  58  59  62  64  66 
 67  67  69  72  72  74  72  63  49  39  38  39  23 115 108  97  94 
 94  90  80  69  62  62  63  61  61  60  60  60  59  58  58  60  58 
 58  58  57  57  58  57  55  55  56  55  55  51  44  39  40  40  36 
 23   4 